<svg xmlns="http://www.w3.org/2000/svg" xmlns:xlink="http://www.w3.org/1999/xlink" preserveAspectRatio="xMidYMid" width="44" height="47" viewBox="0 0 44 47">
  <defs>
    <style>

      .cls-2 {
        fill: #ffffff;
        stroke: #ffffff;
        stroke-width: 1px;
      }
    </style>
  </defs>
  <path d="M0.500,46.500 C0.500,46.500 0.500,24.500 0.500,24.500 C0.500,24.500 43.500,24.500 43.500,24.500 C43.500,24.500 43.500,46.500 43.500,46.500 C43.500,46.500 0.500,46.500 0.500,46.500 ZM29.500,15.500 C29.500,15.500 31.522,7.675 22.500,7.500 C12.479,7.306 14.500,15.500 14.500,15.500 C14.500,15.500 14.500,23.500 14.500,23.500 C14.500,23.500 7.500,23.500 7.500,23.500 C7.500,23.500 7.500,12.500 7.500,12.500 C7.500,12.500 7.486,0.608 22.500,0.500 C36.514,0.399 36.500,12.500 36.500,12.500 C36.500,12.500 36.500,23.500 36.500,23.500 C36.500,23.500 29.500,23.500 29.500,23.500 C29.500,23.500 29.500,15.500 29.500,15.500 Z" id="path-1" class="cls-2" fill-rule="evenodd"/>
</svg>
