<svg xmlns="http://www.w3.org/2000/svg" xmlns:xlink="http://www.w3.org/1999/xlink" preserveAspectRatio="xMidYMid" width="55" height="45" viewBox="0 0 55 45">
  <defs>
    <style>

      .cls-2 {
        fill: #ffffff;

      }
    </style>
  </defs>
  <path d="M-0.000,24.000 C-0.000,24.000 27.000,0.000 27.000,0.000 C27.000,0.000 55.000,24.000 55.000,24.000 C55.000,24.000 -0.000,24.000 -0.000,24.000 ZM46.000,45.000 C46.000,45.000 33.000,45.000 33.000,45.000 C33.000,45.000 33.000,30.000 33.000,30.000 C33.000,30.000 22.000,30.000 22.000,30.000 C22.000,30.000 22.000,45.000 22.000,45.000 C22.000,45.000 9.000,45.000 9.000,45.000 C9.000,45.000 9.000,25.000 9.000,25.000 C9.000,25.000 46.000,25.000 46.000,25.000 C46.000,25.000 46.000,45.000 46.000,45.000 Z" id="path-1" class="cls-2" fill-rule="evenodd"/>
</svg>
