<svg xmlns="http://www.w3.org/2000/svg" xmlns:xlink="http://www.w3.org/1999/xlink" preserveAspectRatio="xMidYMid" width="11" height="47" viewBox="0 0 11 47">
  <defs>
    <style>

      .cls-2 {
        fill: #ffffff;
      }
    </style>
  </defs>
  <path d="M7.284,33.842 C7.603,30.925 7.922,28.430 8.241,26.356 C8.560,24.283 8.857,22.494 9.130,20.990 C9.404,19.486 9.660,18.193 9.899,17.111 C10.138,16.029 10.344,15.009 10.514,14.052 C10.685,13.095 10.822,12.120 10.925,11.129 C11.027,10.138 11.078,8.982 11.078,7.660 C11.078,6.475 10.919,5.404 10.600,4.447 C10.281,3.490 9.865,2.687 9.352,2.037 C8.840,1.388 8.247,0.887 7.575,0.534 C6.903,0.180 6.225,0.004 5.541,0.004 C4.858,0.004 4.185,0.180 3.525,0.534 C2.864,0.887 2.271,1.388 1.747,2.037 C1.223,2.687 0.802,3.490 0.483,4.447 C0.163,5.404 0.004,6.475 0.004,7.660 C0.004,8.982 0.055,10.138 0.158,11.129 C0.261,12.120 0.397,13.095 0.568,14.052 C0.739,15.009 0.944,16.029 1.183,17.111 C1.423,18.193 1.684,19.486 1.970,20.990 C2.254,22.494 2.556,24.283 2.875,26.356 C3.194,28.430 3.513,30.925 3.832,33.842 C3.832,33.842 7.284,33.842 7.284,33.842 ZM1.286,40.199 C1.525,39.630 1.855,39.134 2.277,38.712 C2.698,38.291 3.188,37.960 3.747,37.721 C4.305,37.482 4.903,37.362 5.541,37.362 C6.179,37.362 6.783,37.482 7.353,37.721 C7.922,37.960 8.424,38.291 8.857,38.712 C9.289,39.134 9.626,39.630 9.865,40.199 C10.104,40.769 10.224,41.373 10.224,42.011 C10.224,42.672 10.104,43.281 9.865,43.839 C9.626,44.398 9.289,44.888 8.857,45.309 C8.424,45.731 7.922,46.061 7.353,46.300 C6.783,46.539 6.179,46.659 5.541,46.659 C4.903,46.659 4.305,46.539 3.747,46.300 C3.188,46.061 2.698,45.731 2.277,45.309 C1.855,44.888 1.525,44.398 1.286,43.839 C1.047,43.281 0.927,42.672 0.927,42.011 C0.927,41.373 1.047,40.769 1.286,40.199 Z" id="path-1" class="cls-2" fill-rule="evenodd"/>
</svg>
