<svg xmlns="http://www.w3.org/2000/svg" xmlns:xlink="http://www.w3.org/1999/xlink" preserveAspectRatio="xMidYMid" width="44" height="37" viewBox="0 0 44 37">
  <defs>
    <style>

      .cls-2 {
        fill: #fd1c1c;
      }
    </style>
  </defs>
  <path d="M44.000,31.000 C44.000,31.000 34.000,33.000 34.000,33.000 C34.000,33.000 20.091,19.909 20.091,19.909 C20.091,19.909 3.000,37.000 3.000,37.000 C3.000,37.000 2.074,33.444 4.000,31.000 C6.960,27.243 11.956,21.766 16.708,16.725 C16.708,16.725 -0.000,1.000 -0.000,1.000 C-0.000,1.000 6.000,1.000 6.000,1.000 C6.000,1.000 20.657,12.572 20.657,12.572 C25.325,7.703 29.000,4.000 29.000,4.000 C29.000,4.000 40.000,0.000 40.000,0.000 C40.000,0.000 24.441,15.559 24.441,15.559 C24.441,15.559 44.000,31.000 44.000,31.000 Z" id="path-1" class="cls-2" fill-rule="evenodd"/>
</svg>
