<svg xmlns="http://www.w3.org/2000/svg" xmlns:xlink="http://www.w3.org/1999/xlink" preserveAspectRatio="xMidYMid" width="422" height="125" viewBox="0 0 422 125">
  <defs>
    <style>

      .cls-3 {
        fill: #0f8add;
      }

      .cls-5 {
        fill: #ffffff;
      }

      .cls-6 {
        fill: #0d0d0d;
      }

      .cls-7 {
        fill: #77bf26;
      }
    </style>
  </defs>
  <g id="logo_fullsvg">
    <rect id="rect-1" class="cls-3" x="97" y="26" width="325" height="75"/>
    <g id="face2">
      <path d="M368.834,80.647 C368.834,80.647 364.915,80.647 364.915,80.647 C364.915,80.647 370.234,69.729 370.234,69.729 C370.234,69.729 362.035,52.172 362.035,52.172 C362.035,52.172 366.034,52.172 366.034,52.172 C366.034,52.172 369.474,59.611 369.474,59.611 C370.394,61.611 371.353,63.730 372.153,65.530 C372.153,65.530 372.233,65.530 372.233,65.530 C373.113,63.570 373.993,61.611 374.913,59.611 C374.913,59.611 378.352,52.172 378.352,52.172 C378.352,52.172 382.152,52.172 382.152,52.172 C382.152,52.172 368.834,80.647 368.834,80.647 ZM362.672,68.849 C362.672,68.849 362.672,71.849 362.672,71.849 C362.192,72.049 361.512,72.209 360.752,72.209 C359.192,72.209 357.713,71.529 356.953,70.129 C356.953,70.129 356.873,70.129 356.873,70.129 C355.753,71.169 353.473,72.289 350.834,72.289 C349.234,72.289 347.474,71.889 346.154,70.889 C344.875,69.929 344.075,68.449 344.075,66.530 C344.075,64.330 345.115,62.730 346.674,61.731 C348.154,60.771 350.154,60.411 352.193,60.411 C353.713,60.411 355.113,60.611 356.393,60.931 C356.393,60.931 356.393,59.291 356.393,59.291 C356.393,57.851 356.033,56.771 355.273,56.052 C354.513,55.372 353.313,54.972 351.634,54.972 C349.154,54.972 347.074,55.852 345.595,56.931 C345.595,56.931 345.595,53.412 345.595,53.412 C347.114,52.492 349.234,51.732 352.153,51.732 C354.553,51.732 356.633,52.252 358.032,53.532 C359.192,54.572 359.992,56.251 359.992,58.691 C359.992,58.691 359.992,67.050 359.992,67.050 C359.992,68.249 360.432,69.129 361.512,69.129 C361.912,69.129 362.352,69.009 362.672,68.849 ZM356.393,63.690 C355.313,63.370 353.793,63.170 352.553,63.170 C350.114,63.170 347.714,63.890 347.714,66.210 C347.714,68.129 349.354,69.089 351.474,69.089 C353.353,69.089 355.193,68.329 356.393,67.370 C356.393,67.370 356.393,63.690 356.393,63.690 ZM332.711,71.849 C332.711,71.849 329.632,63.410 329.632,63.410 C328.952,61.611 328.272,59.611 327.712,57.891 C327.712,57.891 327.632,57.891 327.632,57.891 C327.072,59.611 326.392,61.611 325.713,63.410 C325.713,63.410 322.633,71.849 322.633,71.849 C322.633,71.849 319.034,71.849 319.034,71.849 C319.034,71.849 312.195,52.172 312.195,52.172 C312.195,52.172 316.114,52.172 316.114,52.172 C316.114,52.172 319.034,60.931 319.034,60.931 C319.714,62.970 320.353,64.970 320.993,67.010 C320.993,67.010 321.073,67.010 321.073,67.010 C321.753,65.010 322.513,62.890 323.233,60.931 C323.233,60.931 326.472,52.172 326.472,52.172 C326.472,52.172 329.032,52.172 329.032,52.172 C329.032,52.172 332.271,60.931 332.271,60.931 C333.031,62.970 333.751,65.010 334.431,67.010 C334.431,67.010 334.511,67.010 334.511,67.010 C335.111,65.010 335.751,63.010 336.431,60.971 C336.431,60.971 339.350,52.172 339.350,52.172 C339.350,52.172 343.110,52.172 343.110,52.172 C343.110,52.172 336.271,71.849 336.271,71.849 C336.271,71.849 332.711,71.849 332.711,71.849 ZM291.274,72.289 C285.315,72.289 280.876,67.810 280.876,62.011 C280.876,56.211 285.315,51.732 291.274,51.732 C297.233,51.732 301.672,56.211 301.672,62.011 C301.672,67.810 297.233,72.289 291.274,72.289 ZM291.274,55.012 C287.355,55.012 284.475,58.051 284.475,62.011 C284.475,65.970 287.355,69.009 291.274,69.009 C295.193,69.009 298.073,65.970 298.073,62.011 C298.073,58.051 295.193,55.012 291.274,55.012 ZM273.393,60.371 C273.393,58.331 273.113,57.131 272.474,56.371 C271.674,55.412 270.394,55.092 269.314,55.092 C267.074,55.092 264.555,56.491 263.155,58.371 C263.155,58.371 263.155,71.849 263.155,71.849 C263.155,71.849 259.556,71.849 259.556,71.849 C259.556,71.849 259.556,52.172 259.556,52.172 C259.556,52.172 263.155,52.172 263.155,52.172 C263.155,52.172 263.155,54.652 263.155,54.652 C263.155,54.652 263.235,54.692 263.235,54.692 C264.955,52.972 267.354,51.732 270.114,51.732 C272.274,51.732 274.113,52.492 275.353,53.892 C276.433,55.132 276.993,56.651 276.993,59.691 C276.993,59.691 276.993,71.849 276.993,71.849 C276.993,71.849 273.393,71.849 273.393,71.849 C273.393,71.849 273.393,60.371 273.393,60.371 ZM230.477,80.647 C230.477,80.647 235.796,69.729 235.796,69.729 C235.796,69.729 227.597,52.172 227.597,52.172 C227.597,52.172 231.596,52.172 231.596,52.172 C231.596,52.172 235.036,59.611 235.036,59.611 C235.956,61.611 236.915,63.730 237.715,65.530 C237.715,65.530 237.795,65.530 237.795,65.530 C238.675,63.570 239.555,61.611 240.475,59.611 C240.475,59.611 243.914,52.172 243.914,52.172 C243.914,52.172 247.714,52.172 247.714,52.172 C247.714,52.172 234.396,80.647 234.396,80.647 C234.396,80.647 230.477,80.647 230.477,80.647 ZM211.476,63.050 C211.996,66.930 214.876,69.049 218.755,69.049 C221.475,69.049 223.754,67.970 225.554,66.610 C225.554,66.610 225.554,70.449 225.554,70.449 C223.794,71.569 221.075,72.289 218.515,72.289 C212.436,72.289 207.877,68.209 207.877,62.011 C207.877,55.812 212.396,51.732 217.675,51.732 C222.474,51.732 226.634,55.092 226.634,61.251 C226.634,61.851 226.594,62.570 226.514,63.050 C226.514,63.050 211.476,63.050 211.476,63.050 ZM217.595,54.972 C214.996,54.972 212.196,56.571 211.556,60.211 C211.556,60.211 223.154,60.211 223.154,60.211 C222.834,56.291 219.955,54.972 217.595,54.972 ZM200.394,60.371 C200.394,58.171 200.115,57.131 199.435,56.371 C198.675,55.492 197.675,55.092 196.435,55.092 C194.076,55.092 191.636,56.531 190.156,58.371 C190.156,58.371 190.156,71.849 190.156,71.849 C190.156,71.849 186.557,71.849 186.557,71.849 C186.557,71.849 186.557,41.294 186.557,41.294 C186.557,41.294 190.156,41.294 190.156,41.294 C190.156,41.294 190.156,54.652 190.156,54.652 C190.156,54.652 190.236,54.692 190.236,54.692 C191.956,52.972 194.356,51.732 197.115,51.732 C199.275,51.732 201.114,52.492 202.354,53.892 C203.434,55.132 203.994,56.651 203.994,59.691 C203.994,59.691 203.994,71.849 203.994,71.849 C203.994,71.849 200.394,71.849 200.394,71.849 C200.394,71.849 200.394,60.371 200.394,60.371 Z" id="path-1" class="cls-5" fill-rule="evenodd"/>
      <path d="M96.780,-0.009 C104.476,-0.143 108.423,1.442 113.210,3.398 C117.213,5.033 121.521,4.929 124.692,7.183 C126.337,8.352 126.537,10.047 127.859,11.536 C128.915,12.230 129.971,12.924 131.026,13.618 C140.362,10.737 155.875,18.168 159.532,22.892 C160.918,25.099 162.304,27.308 163.690,29.516 C163.954,30.651 164.218,31.787 164.481,32.922 C167.096,37.535 175.573,37.635 173.786,46.928 C172.760,52.258 170.287,59.596 166.461,62.447 C164.993,63.541 162.883,63.909 161.710,65.286 C167.357,65.761 176.592,72.894 174.775,79.102 C173.196,84.497 167.698,89.428 164.283,93.486 C162.645,95.434 159.104,97.821 156.563,98.785 C155.639,98.974 154.715,99.163 153.792,99.353 C153.172,99.929 153.310,103.084 152.604,104.084 C150.229,106.418 147.853,108.753 145.477,111.087 C139.790,115.309 128.315,119.287 118.357,117.332 C115.124,116.449 111.890,115.566 108.657,114.683 C99.452,127.070 88.378,126.695 72.431,121.875 C68.934,120.045 65.436,118.215 61.939,116.386 C60.484,116.175 50.833,118.018 48.082,118.468 C29.771,121.459 21.314,108.276 18.784,95.757 C10.494,94.893 -1.692,80.307 0.176,69.260 C1.105,63.762 2.163,58.981 3.937,54.309 C4.597,53.047 5.257,51.785 5.917,50.524 C6.424,48.429 4.302,46.552 3.937,44.846 C3.173,41.274 5.765,36.983 7.104,34.815 C11.361,27.924 18.286,21.818 25.910,18.160 C28.616,17.592 31.322,17.024 34.027,16.457 C34.753,15.637 35.479,14.816 36.204,13.996 C40.896,10.615 47.089,6.750 53.427,5.290 C56.988,4.471 61.666,5.183 65.106,5.858 C66.294,6.174 67.482,6.489 68.669,6.805 C73.628,5.969 79.978,2.871 85.496,1.505 C89.257,1.001 93.019,0.496 96.780,-0.009 Z" id="path-2" class="cls-6" fill-rule="evenodd"/>
      <path d="M95.988,3.966 C108.151,4.478 119.980,7.947 125.484,14.943 C123.869,15.299 122.182,15.916 121.129,16.835 C121.129,16.898 121.129,16.961 121.129,17.025 C123.938,20.229 132.621,16.612 138.747,17.592 C147.224,18.949 160.338,23.072 160.522,31.976 C159.587,32.288 159.389,32.550 158.939,33.301 C159.071,33.616 159.203,33.932 159.335,34.247 C161.483,35.062 163.351,36.766 165.075,38.032 C179.194,48.402 160.944,58.637 156.761,66.043 C159.287,69.576 167.552,69.303 170.222,75.127 C173.279,81.793 161.717,93.216 156.761,95.189 C154.914,96.072 153.066,96.955 151.218,97.839 C149.965,98.028 148.711,98.217 147.457,98.406 C146.932,98.792 147.099,99.622 147.061,100.488 C148.183,100.677 149.305,100.867 150.426,101.056 C150.426,101.308 150.426,101.561 150.426,101.813 C148.183,104.084 145.939,106.355 143.696,108.626 C138.745,112.535 119.174,117.131 111.627,112.033 C111.627,111.970 111.627,111.907 111.627,111.844 C113.024,111.364 113.879,110.512 114.200,109.005 C113.485,108.558 113.234,108.337 112.022,108.248 C110.769,109.131 109.515,110.014 108.261,110.898 C107.436,110.461 106.560,109.743 105.688,109.951 C104.613,110.054 104.327,110.178 103.906,110.898 C103.840,111.339 103.774,111.781 103.708,112.222 C104.368,112.601 105.028,112.979 105.688,113.358 C103.016,116.717 89.748,123.430 82.527,122.064 C76.121,120.852 71.062,117.009 65.700,114.872 C65.832,114.620 65.964,114.367 66.096,114.115 C67.585,113.830 69.641,112.878 69.065,111.276 C68.895,110.419 69.088,110.713 68.472,110.330 C65.472,109.249 60.099,112.488 57.188,113.169 C49.782,114.900 36.686,114.561 31.057,111.276 C27.251,109.054 23.508,100.892 22.149,96.135 C21.534,93.982 22.518,90.524 21.159,89.133 C19.694,89.592 19.654,90.271 18.784,91.214 C10.648,90.603 5.488,82.615 4.333,75.317 C3.778,71.814 6.615,59.586 7.698,56.580 C8.939,53.136 12.633,49.691 11.855,45.792 C11.657,45.729 11.459,45.666 11.262,45.603 C9.626,45.177 8.952,45.979 7.896,46.549 C7.896,45.918 7.896,45.287 7.896,44.657 C8.754,41.944 9.612,39.231 10.470,36.518 C13.077,30.523 18.326,27.256 23.733,23.838 C25.972,22.422 27.602,20.523 30.661,19.863 C30.398,20.557 30.134,21.251 29.870,21.945 C30.068,22.261 30.266,22.576 30.463,22.892 C30.661,22.955 30.859,23.018 31.057,23.081 C32.443,21.819 33.829,20.557 35.214,19.296 C36.798,19.296 38.382,19.296 39.966,19.296 C40.031,18.854 40.097,18.412 40.163,17.971 C39.441,17.311 38.726,17.364 38.382,16.268 C41.868,11.869 53.184,8.825 60.949,10.022 C60.949,10.085 60.949,10.148 60.949,10.211 C60.949,10.274 60.949,10.337 60.949,10.400 C58.552,11.065 56.071,12.566 55.802,15.321 C56.000,15.574 56.198,15.826 56.396,16.078 C56.462,16.078 56.528,16.078 56.594,16.078 C58.837,14.880 61.081,13.681 63.325,12.482 C68.735,10.401 74.147,8.318 79.557,6.237 C85.034,5.480 90.511,4.723 95.988,3.966 ZM52.833,30.083 C50.090,31.046 47.352,30.803 44.914,31.787 C40.169,33.703 28.071,39.611 29.078,45.603 C36.204,54.036 68.113,51.647 77.182,46.360 C79.542,44.984 82.926,43.635 83.516,40.682 C85.131,32.608 60.664,30.738 52.833,30.083 ZM113.012,31.787 C110.109,32.102 107.205,32.418 104.302,32.733 C99.325,33.915 96.196,36.413 92.622,38.789 C90.570,40.154 87.083,43.494 89.257,46.928 C92.023,51.297 102.046,52.129 109.845,51.470 C122.874,50.368 139.273,48.142 148.051,42.764 C148.183,42.385 148.315,42.007 148.447,41.628 C144.918,33.845 124.273,31.918 113.012,31.787 ZM136.767,65.286 C130.865,68.668 124.298,70.087 116.180,71.342 C110.241,71.153 104.301,70.964 98.363,70.774 C92.347,71.693 84.522,73.778 77.974,72.478 C73.165,71.523 71.323,67.670 66.492,66.989 C60.808,66.188 56.930,71.098 50.655,69.828 C47.390,69.168 46.503,66.910 44.123,65.664 C39.031,66.519 34.936,69.487 32.047,72.667 C32.133,73.997 32.455,74.009 33.037,74.749 C34.423,75.064 35.809,75.380 37.194,75.695 C38.316,76.957 39.438,78.219 40.559,79.480 C43.411,81.594 46.384,82.291 48.280,85.347 C50.986,89.708 52.249,96.494 57.386,98.406 C61.202,99.827 72.373,95.128 76.390,94.243 C80.679,94.116 84.969,93.990 89.257,93.864 C93.018,92.981 96.780,92.098 100.541,91.214 C102.982,91.025 105.424,90.836 107.865,90.647 C112.484,89.070 117.104,87.492 121.722,85.915 C125.631,84.602 133.089,83.829 134.788,80.427 C136.421,77.148 131.973,74.609 132.610,71.153 C133.101,68.491 138.282,66.878 137.757,65.286 C137.427,65.286 137.097,65.286 136.767,65.286 Z" id="path-3" class="cls-7" fill-rule="evenodd"/>
      <path d="M46.498,33.869 C46.630,33.869 46.762,33.869 46.894,33.869 C46.168,36.013 45.442,38.159 44.717,40.304 C44.074,42.902 45.706,47.302 45.112,48.252 C41.665,47.580 34.313,47.445 32.047,44.467 C33.661,38.465 41.349,36.748 46.498,33.869 ZM103.510,35.194 C104.236,35.194 104.962,35.194 105.688,35.194 C104.629,39.475 102.547,44.270 104.500,49.009 C97.863,49.164 94.098,48.188 91.039,45.035 C91.039,44.404 91.039,43.773 91.039,43.142 C91.963,42.133 92.887,41.124 93.810,40.114 C96.760,38.090 100.183,36.923 103.510,35.194 ZM74.608,36.140 C77.138,36.841 79.156,38.463 79.161,41.628 C78.582,42.680 77.794,43.101 76.588,43.521 C76.496,40.379 75.270,38.732 74.608,36.140 ZM132.808,36.518 C136.828,37.208 142.224,39.168 144.884,41.439 C144.818,41.565 144.752,41.691 144.686,41.818 C140.463,42.953 136.239,44.089 132.016,45.224 C132.016,44.972 132.016,44.720 132.016,44.467 C132.280,41.818 132.544,39.168 132.808,36.518 Z" id="path-4" class="cls-5" fill-rule="evenodd"/>
    </g>
  </g>
</svg>
