<svg xmlns="http://www.w3.org/2000/svg" xmlns:xlink="http://www.w3.org/1999/xlink" preserveAspectRatio="xMidYMid" width="92" height="66" viewBox="0 0 92 66">
  <defs>
    <style>

      .cls-3 {
        fill: #0d0d0d;
      }

      .cls-4 {
        fill: #77bf26;
      }

      .cls-5 {
        fill: #ffffff;
      }
    </style>
  </defs>
  <g id="logo_mobsvg">
    <path d="M51.085,0.011 C55.148,-0.060 57.232,0.776 59.760,1.809 C61.873,2.673 64.148,2.618 65.822,3.808 C66.690,4.425 66.796,5.320 67.494,6.106 C68.051,6.472 68.609,6.839 69.166,7.205 C74.095,5.684 82.285,9.607 84.217,12.101 C84.948,13.267 85.680,14.433 86.411,15.599 C86.551,16.198 86.690,16.798 86.829,17.397 C88.210,19.832 92.685,19.885 91.742,24.791 C91.200,27.605 89.894,31.480 87.875,32.985 C87.100,33.563 85.986,33.757 85.366,34.484 C88.348,34.735 93.223,38.501 92.264,41.778 C91.431,44.627 88.527,47.230 86.725,49.372 C85.860,50.401 83.990,51.661 82.649,52.170 C82.161,52.270 81.673,52.370 81.186,52.470 C80.859,52.774 80.931,54.440 80.558,54.968 C79.304,56.200 78.050,57.433 76.796,58.665 C73.793,60.894 67.735,62.994 62.477,61.963 C60.770,61.496 59.063,61.030 57.356,60.564 C52.496,67.104 46.649,66.906 38.230,64.361 C36.383,63.395 34.537,62.429 32.690,61.463 C31.922,61.351 26.827,62.325 25.374,62.562 C15.707,64.142 11.242,57.181 9.906,50.572 C5.529,50.116 -0.904,42.415 0.082,36.582 C0.572,33.679 1.131,31.155 2.067,28.688 C2.416,28.022 2.764,27.356 3.113,26.690 C3.380,25.584 2.260,24.593 2.067,23.692 C1.664,21.806 3.033,19.541 3.740,18.396 C5.987,14.758 9.643,11.534 13.669,9.603 C15.097,9.303 16.526,9.004 17.954,8.704 C18.337,8.271 18.720,7.838 19.103,7.405 C21.580,5.620 24.850,3.579 28.196,2.808 C30.076,2.376 32.546,2.752 34.363,3.108 C34.990,3.275 35.617,3.441 36.244,3.608 C38.862,3.167 42.214,1.531 45.128,0.810 C47.113,0.543 49.100,0.277 51.085,0.011 Z" id="path-1" class="cls-3" fill-rule="evenodd"/>
    <path d="M50.667,2.109 C57.089,2.380 63.334,4.211 66.240,7.904 C65.387,8.092 64.497,8.418 63.941,8.904 C63.941,8.937 63.941,8.970 63.941,9.004 C65.424,10.695 70.008,8.786 73.242,9.303 C77.718,10.019 84.642,12.197 84.739,16.898 C84.245,17.062 84.141,17.201 83.903,17.597 C83.973,17.763 84.042,17.930 84.112,18.097 C85.246,18.527 86.233,19.426 87.143,20.095 C94.597,25.570 84.962,30.974 82.753,34.884 C84.087,36.749 88.450,36.605 89.860,39.680 C91.474,43.199 85.370,49.230 82.753,50.272 C81.778,50.738 80.802,51.204 79.827,51.671 C79.165,51.771 78.503,51.871 77.841,51.970 C77.564,52.174 77.652,52.612 77.632,53.070 C78.224,53.169 78.817,53.269 79.409,53.369 C79.409,53.503 79.409,53.636 79.409,53.769 C78.224,54.968 77.040,56.167 75.855,57.366 C73.242,59.430 62.909,61.856 58.924,59.165 C58.924,59.132 58.924,59.098 58.924,59.065 C59.662,58.812 60.113,58.362 60.282,57.566 C59.905,57.330 59.773,57.213 59.133,57.166 C58.471,57.633 57.809,58.099 57.147,58.565 C56.711,58.335 56.249,57.956 55.788,58.066 C55.221,58.120 55.070,58.185 54.848,58.565 C54.813,58.798 54.778,59.032 54.743,59.265 C55.092,59.465 55.440,59.665 55.788,59.864 C54.378,61.638 47.373,65.182 43.560,64.461 C40.178,63.821 37.507,61.792 34.676,60.664 C34.746,60.531 34.816,60.397 34.885,60.264 C35.671,60.114 36.757,59.611 36.453,58.765 C36.363,58.313 36.465,58.468 36.139,58.266 C34.556,57.695 31.719,59.405 30.182,59.764 C26.272,60.679 19.357,60.500 16.386,58.765 C14.376,57.592 12.400,53.283 11.683,50.771 C11.358,49.634 11.877,47.809 11.160,47.074 C10.386,47.317 10.365,47.675 9.906,48.173 C5.611,47.851 2.886,43.633 2.276,39.780 C1.984,37.931 3.481,31.475 4.053,29.887 C4.708,28.069 6.658,26.250 6.248,24.192 C6.144,24.159 6.039,24.125 5.934,24.092 C5.071,23.867 4.715,24.290 4.158,24.592 C4.158,24.259 4.158,23.925 4.158,23.592 C4.611,22.160 5.064,20.728 5.516,19.296 C6.893,16.131 9.664,14.406 12.519,12.601 C13.701,11.853 14.562,10.851 16.177,10.502 C16.038,10.869 15.898,11.235 15.759,11.602 C15.863,11.768 15.968,11.935 16.072,12.101 C16.177,12.135 16.282,12.168 16.386,12.201 C17.118,11.535 17.849,10.869 18.581,10.203 C19.417,10.203 20.253,10.203 21.089,10.203 C21.124,9.970 21.159,9.736 21.194,9.503 C20.812,9.155 20.435,9.183 20.253,8.604 C22.094,6.282 28.068,4.674 32.168,5.306 C32.168,5.340 32.168,5.373 32.168,5.406 C32.168,5.440 32.168,5.473 32.168,5.506 C30.902,5.857 29.592,6.650 29.450,8.104 C29.555,8.238 29.659,8.371 29.764,8.504 C29.799,8.504 29.834,8.504 29.868,8.504 C31.053,7.871 32.238,7.238 33.422,6.605 C36.278,5.506 39.136,4.407 41.992,3.308 C44.884,2.908 47.776,2.509 50.667,2.109 ZM27.883,15.898 C26.435,16.406 24.989,16.278 23.702,16.798 C21.196,17.810 14.809,20.929 15.341,24.092 C19.103,28.545 35.950,27.283 40.738,24.492 C41.985,23.765 43.771,23.053 44.083,21.494 C44.935,17.231 32.017,16.244 27.883,15.898 ZM59.655,16.798 C58.123,16.964 56.589,17.131 55.057,17.297 C52.429,17.921 50.777,19.240 48.890,20.495 C47.807,21.215 45.966,22.978 47.114,24.791 C48.574,27.098 53.866,27.538 57.983,27.190 C64.862,26.608 73.520,25.433 78.155,22.593 C78.224,22.393 78.294,22.193 78.364,21.994 C76.500,17.884 65.601,16.867 59.655,16.798 ZM72.197,34.484 C69.081,36.270 65.614,37.019 61.328,37.681 C58.192,37.582 55.056,37.482 51.921,37.382 C48.745,37.867 44.614,38.967 41.156,38.281 C38.618,37.777 37.645,35.743 35.094,35.383 C32.093,34.960 30.046,37.552 26.733,36.882 C25.009,36.533 24.541,35.342 23.284,34.684 C20.596,35.135 18.434,36.702 16.909,38.381 C16.954,39.083 17.124,39.090 17.431,39.480 C18.163,39.647 18.894,39.813 19.626,39.980 C20.218,40.646 20.811,41.312 21.403,41.978 C22.909,43.094 24.478,43.462 25.479,45.076 C26.907,47.378 27.575,50.961 30.287,51.970 C32.301,52.721 38.199,50.239 40.320,49.772 C42.584,49.706 44.849,49.639 47.114,49.572 C49.099,49.106 51.085,48.640 53.071,48.173 C54.360,48.073 55.649,47.974 56.938,47.874 C59.376,47.041 61.816,46.208 64.254,45.376 C66.318,44.682 70.255,44.274 71.152,42.478 C72.014,40.747 69.666,39.406 70.002,37.582 C70.261,36.176 72.997,35.325 72.720,34.484 C72.546,34.484 72.371,34.484 72.197,34.484 Z" id="path-2" class="cls-4" fill-rule="evenodd"/>
    <path d="M24.538,17.897 C24.608,17.897 24.678,17.897 24.747,17.897 C24.364,19.029 23.981,20.162 23.598,21.294 C23.258,22.666 24.120,24.989 23.807,25.491 C21.987,25.136 18.105,25.065 16.909,23.492 C17.761,20.324 21.819,19.417 24.538,17.897 ZM54.639,18.596 C55.022,18.596 55.405,18.596 55.788,18.596 C55.229,20.857 54.130,23.388 55.161,25.891 C51.657,25.972 49.669,25.457 48.054,23.792 C48.054,23.459 48.054,23.126 48.054,22.793 C48.542,22.260 49.030,21.727 49.517,21.194 C51.075,20.125 52.882,19.510 54.639,18.596 ZM39.379,19.096 C40.715,19.466 41.780,20.322 41.783,21.994 C41.477,22.549 41.061,22.771 40.425,22.993 C40.376,21.334 39.729,20.465 39.379,19.096 ZM70.107,19.296 C72.230,19.660 75.078,20.694 76.482,21.894 C76.448,21.960 76.413,22.027 76.378,22.093 C74.148,22.693 71.918,23.293 69.689,23.892 C69.689,23.759 69.689,23.626 69.689,23.492 C69.828,22.094 69.968,20.694 70.107,19.296 Z" id="path-3" class="cls-5" fill-rule="evenodd"/>
  </g>
</svg>
