<svg xmlns="http://www.w3.org/2000/svg" xmlns:xlink="http://www.w3.org/1999/xlink" preserveAspectRatio="xMidYMid" width="422" height="125" viewBox="0 0 422 125">
  <defs>
    <style>

      .cls-3 {
        fill: #0f8add;
      }

      .cls-4 {
        fill: #fafaf9;
      }

      .cls-6 {
        fill: #0d0d0d;
      }

      .cls-7 {
        fill: #77bf26;
      }

      .cls-8 {
        fill: #ffffff;
      }
    </style>
  </defs>
  <g id="logo_fullsvg">
    <rect id="rect-1" class="cls-3" x="97" y="26" width="325" height="75"/>
    <path d="M369.993,79.091 C369.993,79.091 366.459,79.091 366.459,79.091 C366.459,79.091 370.116,70.900 370.116,70.900 C370.116,70.900 362.293,52.214 362.293,52.214 C362.293,52.214 365.879,52.214 365.879,52.214 C365.879,52.214 371.909,66.769 371.909,66.769 C371.909,66.769 377.991,52.214 377.991,52.214 C377.991,52.214 381.454,52.214 381.454,52.214 C381.454,52.214 369.993,79.091 369.993,79.091 ZM356.004,69.757 C355.711,69.956 355.315,70.235 354.817,70.592 C354.319,70.950 353.836,71.234 353.367,71.445 C352.816,71.714 352.183,71.940 351.469,72.121 C350.754,72.303 349.916,72.394 348.955,72.394 C347.186,72.394 345.686,71.808 344.455,70.636 C343.225,69.464 342.609,67.970 342.609,66.154 C342.609,64.665 342.929,63.461 343.567,62.541 C344.206,61.621 345.117,60.898 346.301,60.370 C347.496,59.843 348.932,59.486 350.608,59.298 C352.283,59.111 354.082,58.970 356.004,58.876 C356.004,58.876 356.004,58.366 356.004,58.366 C356.004,57.617 355.872,56.995 355.608,56.503 C355.345,56.011 354.967,55.624 354.475,55.343 C354.006,55.074 353.443,54.892 352.787,54.798 C352.131,54.704 351.445,54.657 350.731,54.657 C349.863,54.657 348.896,54.772 347.830,55.000 C346.764,55.229 345.662,55.560 344.525,55.993 C344.525,55.993 344.350,55.993 344.350,55.993 C344.350,55.993 344.350,52.636 344.350,52.636 C344.994,52.460 345.926,52.267 347.145,52.056 C348.363,51.845 349.564,51.739 350.748,51.739 C352.131,51.739 353.335,51.854 354.360,52.082 C355.386,52.311 356.273,52.701 357.024,53.251 C357.762,53.790 358.324,54.488 358.711,55.343 C359.098,56.199 359.291,57.259 359.291,58.525 C359.291,58.525 359.291,71.849 359.291,71.849 C359.291,71.849 356.004,71.849 356.004,71.849 C356.004,71.849 356.004,69.757 356.004,69.757 ZM356.004,61.548 C354.996,61.607 353.809,61.695 352.444,61.812 C351.079,61.929 349.998,62.099 349.201,62.322 C348.252,62.591 347.484,63.010 346.899,63.578 C346.312,64.147 346.020,64.929 346.020,65.925 C346.020,67.050 346.359,67.897 347.039,68.465 C347.719,69.034 348.756,69.318 350.150,69.318 C351.311,69.318 352.371,69.092 353.332,68.641 C354.293,68.190 355.184,67.648 356.004,67.015 C356.004,67.015 356.004,61.548 356.004,61.548 ZM332.347,71.849 C332.347,71.849 327.302,56.714 327.302,56.714 C327.302,56.714 322.293,71.849 322.293,71.849 C322.293,71.849 319.252,71.849 319.252,71.849 C319.252,71.849 314.084,52.214 314.084,52.214 C314.084,52.214 317.529,52.214 317.529,52.214 C317.529,52.214 321.133,67.419 321.133,67.419 C321.133,67.419 326.037,52.214 326.037,52.214 C326.037,52.214 328.761,52.214 328.761,52.214 C328.761,52.214 333.789,67.419 333.789,67.419 C333.789,67.419 337.199,52.214 337.199,52.214 C337.199,52.214 340.521,52.214 340.521,52.214 C340.521,52.214 335.406,71.849 335.406,71.849 C335.406,71.849 332.347,71.849 332.347,71.849 ZM290.800,72.394 C288.022,72.394 285.816,71.468 284.182,69.616 C282.547,67.765 281.729,65.239 281.729,62.040 C281.729,58.841 282.547,56.313 284.182,54.455 C285.816,52.598 288.022,51.669 290.800,51.669 C293.553,51.669 295.751,52.598 297.391,54.455 C299.032,56.313 299.852,58.841 299.852,62.040 C299.852,65.239 299.032,67.765 297.391,69.616 C295.751,71.468 293.553,72.394 290.800,72.394 ZM294.948,56.371 C293.952,55.135 292.569,54.517 290.800,54.517 C289.007,54.517 287.615,55.135 286.625,56.371 C285.634,57.608 285.140,59.497 285.140,62.040 C285.140,64.501 285.637,66.368 286.634,67.639 C287.630,68.911 289.018,69.546 290.800,69.546 C292.558,69.546 293.937,68.916 294.939,67.656 C295.941,66.397 296.442,64.525 296.442,62.040 C296.442,59.497 295.944,57.608 294.948,56.371 ZM274.350,60.669 C274.350,59.767 274.297,58.920 274.192,58.129 C274.086,57.338 273.893,56.720 273.612,56.275 C273.319,55.782 272.897,55.416 272.346,55.176 C271.795,54.936 271.081,54.816 270.202,54.816 C269.299,54.816 268.356,55.038 267.372,55.484 C266.387,55.929 265.444,56.497 264.541,57.189 C264.541,57.189 264.541,71.849 264.541,71.849 C264.541,71.849 261.237,71.849 261.237,71.849 C261.237,71.849 261.237,52.214 261.237,52.214 C261.237,52.214 264.541,52.214 264.541,52.214 C264.541,52.214 264.541,54.394 264.541,54.394 C265.573,53.539 266.639,52.871 267.741,52.390 C268.842,51.910 269.973,51.669 271.133,51.669 C273.254,51.669 274.871,52.308 275.985,53.585 C277.098,54.863 277.655,56.703 277.655,59.105 C277.655,59.105 277.655,71.849 277.655,71.849 C277.655,71.849 274.350,71.849 274.350,71.849 C274.350,71.849 274.350,60.669 274.350,60.669 ZM231.062,79.091 C231.062,79.091 234.718,70.900 234.718,70.900 C234.718,70.900 226.896,52.214 226.896,52.214 C226.896,52.214 230.482,52.214 230.482,52.214 C230.482,52.214 236.511,66.769 236.511,66.769 C236.511,66.769 242.593,52.214 242.593,52.214 C242.593,52.214 246.056,52.214 246.056,52.214 C246.056,52.214 234.595,79.091 234.595,79.091 C234.595,79.091 231.062,79.091 231.062,79.091 ZM211.044,65.530 C211.407,66.426 211.906,67.162 212.538,67.736 C213.148,68.298 213.871,68.720 214.709,69.001 C215.547,69.282 216.470,69.423 217.478,69.423 C218.814,69.423 220.158,69.157 221.512,68.623 C222.866,68.090 223.829,67.566 224.404,67.050 C224.404,67.050 224.579,67.050 224.579,67.050 C224.579,67.050 224.579,70.654 224.579,70.654 C223.466,71.122 222.329,71.515 221.169,71.831 C220.009,72.148 218.790,72.306 217.513,72.306 C214.255,72.306 211.712,71.424 209.884,69.660 C208.056,67.897 207.142,65.392 207.142,62.146 C207.142,58.935 208.018,56.386 209.770,54.499 C211.522,52.613 213.827,51.669 216.687,51.669 C219.335,51.669 221.377,52.443 222.813,53.989 C224.248,55.536 224.966,57.734 224.966,60.581 C224.966,60.581 224.966,62.374 224.966,62.374 C224.966,62.374 210.499,62.374 210.499,62.374 C210.499,63.581 210.681,64.633 211.044,65.530 ZM221.749,59.843 C221.737,58.109 221.301,56.767 220.440,55.818 C219.578,54.868 218.269,54.394 216.511,54.394 C214.741,54.394 213.332,54.915 212.283,55.958 C211.235,57.001 210.640,58.296 210.499,59.843 C210.499,59.843 221.749,59.843 221.749,59.843 ZM199.763,60.669 C199.763,59.767 199.710,58.920 199.604,58.129 C199.499,57.338 199.306,56.720 199.024,56.275 C198.731,55.782 198.309,55.416 197.759,55.176 C197.208,54.936 196.493,54.816 195.614,54.816 C194.712,54.816 193.768,55.038 192.784,55.484 C191.800,55.929 190.856,56.497 189.954,57.189 C189.954,57.189 189.954,71.849 189.954,71.849 C189.954,71.849 186.649,71.849 186.649,71.849 C186.649,71.849 186.649,44.497 186.649,44.497 C186.649,44.497 189.954,44.497 189.954,44.497 C189.954,44.497 189.954,54.394 189.954,54.394 C190.985,53.539 192.052,52.871 193.153,52.390 C194.255,51.910 195.386,51.669 196.546,51.669 C198.667,51.669 200.284,52.308 201.397,53.585 C202.511,54.863 203.067,56.703 203.067,59.105 C203.067,59.105 203.067,71.849 203.067,71.849 C203.067,71.849 199.763,71.849 199.763,71.849 C199.763,71.849 199.763,60.669 199.763,60.669 Z" id="path-1" class="cls-4" fill-rule="evenodd"/>
    <g id="face2">
      <path d="M96.780,-0.009 C104.476,-0.143 108.423,1.442 113.210,3.398 C117.213,5.033 121.521,4.929 124.692,7.183 C126.337,8.352 126.537,10.047 127.859,11.536 C128.915,12.230 129.971,12.924 131.026,13.618 C140.362,10.737 155.875,18.168 159.532,22.892 C160.918,25.099 162.304,27.308 163.690,29.516 C163.954,30.651 164.218,31.787 164.481,32.922 C167.096,37.535 175.573,37.635 173.785,46.928 C172.760,52.258 170.287,59.596 166.461,62.447 C164.993,63.541 162.883,63.909 161.710,65.286 C167.357,65.761 176.592,72.894 174.775,79.102 C173.196,84.497 167.698,89.428 164.283,93.486 C162.645,95.434 159.104,97.821 156.563,98.785 C155.639,98.974 154.715,99.163 153.792,99.353 C153.172,99.929 153.310,103.084 152.604,104.084 C150.229,106.418 147.853,108.753 145.477,111.087 C139.790,115.309 128.315,119.287 118.357,117.332 C115.124,116.449 111.890,115.566 108.657,114.683 C99.452,127.070 88.378,126.695 72.431,121.875 C68.934,120.045 65.436,118.215 61.939,116.386 C60.484,116.175 50.833,118.018 48.082,118.468 C29.771,121.459 21.314,108.276 18.784,95.757 C10.494,94.893 -1.692,80.307 0.176,69.260 C1.105,63.762 2.163,58.981 3.937,54.309 C4.597,53.047 5.257,51.785 5.917,50.524 C6.424,48.429 4.302,46.552 3.937,44.846 C3.173,41.274 5.765,36.983 7.104,34.815 C11.361,27.924 18.286,21.818 25.910,18.160 C28.616,17.592 31.322,17.024 34.027,16.457 C34.753,15.637 35.479,14.816 36.204,13.996 C40.896,10.615 47.089,6.750 53.427,5.290 C56.988,4.471 61.666,5.183 65.106,5.858 C66.294,6.174 67.482,6.489 68.669,6.805 C73.628,5.969 79.978,2.871 85.496,1.505 C89.257,1.001 93.019,0.496 96.780,-0.009 Z" id="path-2" class="cls-6" fill-rule="evenodd"/>
      <path d="M95.988,3.966 C108.151,4.478 119.980,7.947 125.484,14.943 C123.869,15.299 122.182,15.916 121.129,16.835 C121.129,16.898 121.129,16.961 121.129,17.025 C123.938,20.229 132.621,16.612 138.747,17.592 C147.224,18.949 160.338,23.072 160.522,31.976 C159.587,32.288 159.389,32.550 158.939,33.301 C159.071,33.616 159.203,33.932 159.335,34.247 C161.483,35.062 163.351,36.766 165.075,38.032 C179.194,48.402 160.944,58.637 156.761,66.043 C159.287,69.576 167.552,69.303 170.222,75.127 C173.279,81.793 161.717,93.216 156.761,95.189 C154.914,96.072 153.066,96.955 151.218,97.839 C149.965,98.028 148.711,98.217 147.457,98.406 C146.932,98.792 147.099,99.622 147.061,100.488 C148.183,100.677 149.305,100.867 150.426,101.056 C150.426,101.308 150.426,101.561 150.426,101.813 C148.183,104.084 145.939,106.355 143.696,108.626 C138.745,112.535 119.174,117.131 111.627,112.033 C111.627,111.970 111.627,111.907 111.627,111.844 C113.024,111.364 113.879,110.512 114.200,109.005 C113.485,108.558 113.234,108.337 112.022,108.248 C110.769,109.131 109.515,110.014 108.261,110.898 C107.436,110.461 106.560,109.743 105.688,109.951 C104.613,110.054 104.327,110.178 103.906,110.898 C103.840,111.339 103.774,111.781 103.708,112.222 C104.368,112.601 105.028,112.979 105.688,113.358 C103.016,116.717 89.748,123.430 82.527,122.064 C76.121,120.852 71.062,117.009 65.700,114.872 C65.832,114.620 65.964,114.367 66.096,114.115 C67.585,113.830 69.641,112.878 69.065,111.276 C68.895,110.419 69.088,110.713 68.472,110.330 C65.472,109.249 60.099,112.488 57.188,113.169 C49.782,114.900 36.686,114.561 31.057,111.276 C27.251,109.054 23.508,100.892 22.149,96.135 C21.534,93.982 22.518,90.524 21.159,89.133 C19.694,89.592 19.654,90.271 18.784,91.214 C10.648,90.603 5.488,82.615 4.333,75.317 C3.778,71.814 6.615,59.586 7.698,56.580 C8.939,53.136 12.633,49.691 11.855,45.792 C11.657,45.729 11.459,45.666 11.262,45.603 C9.626,45.177 8.952,45.979 7.896,46.549 C7.896,45.918 7.896,45.287 7.896,44.657 C8.754,41.944 9.612,39.231 10.470,36.518 C13.077,30.523 18.326,27.256 23.733,23.838 C25.972,22.422 27.602,20.523 30.661,19.863 C30.398,20.557 30.134,21.251 29.870,21.945 C30.068,22.261 30.266,22.576 30.463,22.892 C30.661,22.955 30.859,23.018 31.057,23.081 C32.443,21.819 33.829,20.557 35.214,19.296 C36.798,19.296 38.382,19.296 39.965,19.296 C40.031,18.854 40.097,18.412 40.163,17.971 C39.441,17.311 38.726,17.364 38.382,16.268 C41.868,11.869 53.184,8.825 60.949,10.022 C60.949,10.085 60.949,10.148 60.949,10.211 C60.949,10.274 60.949,10.337 60.949,10.400 C58.552,11.065 56.071,12.566 55.802,15.321 C56.000,15.574 56.198,15.826 56.396,16.078 C56.462,16.078 56.528,16.078 56.594,16.078 C58.837,14.880 61.081,13.681 63.325,12.482 C68.735,10.401 74.147,8.318 79.557,6.237 C85.034,5.480 90.511,4.723 95.988,3.966 ZM52.833,30.083 C50.090,31.046 47.352,30.803 44.914,31.787 C40.169,33.703 28.070,39.611 29.078,45.603 C36.204,54.036 68.112,51.647 77.182,46.360 C79.542,44.984 82.926,43.635 83.516,40.682 C85.131,32.608 60.664,30.738 52.833,30.083 ZM113.012,31.787 C110.109,32.102 107.205,32.418 104.302,32.733 C99.325,33.915 96.196,36.413 92.622,38.789 C90.570,40.154 87.083,43.494 89.257,46.928 C92.023,51.297 102.046,52.129 109.845,51.470 C122.874,50.368 139.273,48.142 148.051,42.764 C148.183,42.385 148.315,42.007 148.447,41.628 C144.918,33.845 124.273,31.918 113.012,31.787 ZM136.767,65.286 C130.865,68.668 124.298,70.087 116.180,71.342 C110.241,71.153 104.301,70.964 98.363,70.774 C92.347,71.693 84.522,73.778 77.974,72.478 C73.165,71.523 71.323,67.670 66.492,66.989 C60.808,66.188 56.930,71.098 50.655,69.828 C47.390,69.168 46.503,66.911 44.123,65.664 C39.031,66.519 34.936,69.487 32.047,72.667 C32.133,73.997 32.455,74.009 33.037,74.749 C34.423,75.064 35.809,75.380 37.194,75.695 C38.316,76.957 39.438,78.219 40.559,79.480 C43.411,81.594 46.384,82.291 48.280,85.347 C50.986,89.708 52.249,96.494 57.386,98.406 C61.202,99.827 72.373,95.128 76.390,94.243 C80.679,94.116 84.969,93.990 89.257,93.864 C93.018,92.981 96.780,92.098 100.541,91.214 C102.982,91.025 105.424,90.836 107.865,90.647 C112.484,89.070 117.104,87.492 121.722,85.915 C125.631,84.602 133.089,83.829 134.788,80.427 C136.421,77.148 131.973,74.609 132.610,71.153 C133.101,68.491 138.282,66.878 137.757,65.286 C137.427,65.286 137.097,65.286 136.767,65.286 Z" id="path-3" class="cls-7" fill-rule="evenodd"/>
      <path d="M46.498,33.869 C46.630,33.869 46.762,33.869 46.894,33.869 C46.168,36.013 45.442,38.159 44.717,40.304 C44.074,42.902 45.706,47.302 45.112,48.252 C41.665,47.580 34.313,47.445 32.047,44.467 C33.661,38.465 41.349,36.748 46.498,33.869 ZM103.510,35.194 C104.236,35.194 104.962,35.194 105.688,35.194 C104.629,39.475 102.547,44.270 104.500,49.009 C97.863,49.164 94.098,48.188 91.039,45.035 C91.039,44.404 91.039,43.773 91.039,43.142 C91.963,42.133 92.887,41.124 93.810,40.114 C96.760,38.090 100.183,36.923 103.510,35.194 ZM74.608,36.140 C77.138,36.841 79.156,38.463 79.161,41.628 C78.582,42.680 77.794,43.101 76.588,43.521 C76.496,40.379 75.270,38.732 74.608,36.140 ZM132.808,36.518 C136.828,37.208 142.224,39.168 144.884,41.439 C144.818,41.565 144.752,41.691 144.686,41.818 C140.463,42.953 136.239,44.089 132.016,45.224 C132.016,44.972 132.016,44.720 132.016,44.467 C132.280,41.818 132.544,39.168 132.808,36.518 Z" id="path-4" class="cls-8" fill-rule="evenodd"/>
    </g>
  </g>
</svg>
