<svg xmlns="http://www.w3.org/2000/svg" xmlns:xlink="http://www.w3.org/1999/xlink" preserveAspectRatio="xMidYMid" width="328" height="328" viewBox="0 0 328 328">
  <defs>
    <style>

      .cls-3 {
        fill: #00a99d;
        stroke: #77bf26;
      }

      .cls-4 {
        fill: #fff200;
        stroke: #77bf26;
      }

      .cls-5 {
        fill: #fbaf5d;
        stroke: #77bf26;
      }

      .cls-6 {
        stroke: #77bf26;
        stroke-width: 1px;
        fill: none;
      }
    </style>
  </defs>
  <g id="piechartsvg">
    <path d="M156.663,155.686 C156.663,155.686 320.641,203.358 320.641,203.358 C302.637,273.710 238.823,325.719 162.859,325.719 C121.295,325.719 83.374,310.139 54.598,284.513 C54.598,284.513 156.662,155.664 156.662,155.664 C156.662,155.664 156.663,155.686 156.663,155.686 Z" id="path-1" class="cls-3" fill-rule="evenodd"/>
    <path d="M156.614,155.662 C156.614,155.662 54.759,284.768 54.759,284.768 C21.749,254.963 1.000,211.836 1.000,163.859 C1.000,78.585 66.542,8.630 149.996,1.593 C149.996,1.593 156.662,155.676 156.662,155.676 C156.662,155.676 156.614,155.662 156.614,155.662 Z" id="path-2" class="cls-4" fill-rule="evenodd"/>
    <path d="M156.654,155.674 C156.654,155.674 156.663,155.662 156.663,155.662 C156.663,155.662 150.010,1.503 150.010,1.503 C154.250,1.172 158.534,1.000 162.859,1.000 C252.804,1.000 325.719,73.915 325.719,163.859 C325.719,177.570 324.016,190.881 320.825,203.603 C320.825,203.603 156.654,155.674 156.654,155.674 Z" id="path-3" class="cls-5" fill-rule="evenodd"/>
    <ellipse id="ellipse-1" class="cls-6" cx="163" cy="164" rx="163" ry="164"/>
    <path d="M157.874,156.134 C157.874,156.134 156.876,156.179 156.876,156.179 C156.876,156.179 149.876,1.179 149.876,1.179 C149.876,1.179 150.874,1.134 150.874,1.134 C150.874,1.134 157.874,156.134 157.874,156.134 Z" id="path-4" class="cls-6" fill-rule="evenodd"/>
    <path d="M157.235,156.636 C157.235,156.636 157.515,155.676 157.515,155.676 C157.515,155.676 321.515,203.676 321.515,203.676 C321.515,203.676 321.235,204.636 321.235,204.636 C321.235,204.636 157.235,156.636 157.235,156.636 Z" id="path-5" class="cls-6" fill-rule="evenodd"/>
    <path d="M55.767,285.466 C55.767,285.466 54.983,284.846 54.983,284.846 C54.983,284.846 156.983,155.846 156.983,155.846 C156.983,155.846 157.767,156.466 157.767,156.466 C157.767,156.466 55.767,285.466 55.767,285.466 Z" id="path-6" class="cls-6" fill-rule="evenodd"/>
  </g>
</svg>
