<svg xmlns="http://www.w3.org/2000/svg" xmlns:xlink="http://www.w3.org/1999/xlink" preserveAspectRatio="xMidYMid" viewBox="0 0 41 32">
  <path d="M2.505,32.030 C11.625,27.710 17.265,19.671 17.265,10.911 C17.265,4.431 13.545,-0.008 8.145,-0.008 C3.585,-0.008 -0.014,3.351 -0.014,7.791 C-0.014,11.151 2.146,13.911 5.385,14.751 C9.105,15.591 9.225,15.711 9.225,17.631 C9.225,21.831 6.105,25.671 0.106,29.150 C0.106,29.150 2.505,32.030 2.505,32.030 ZM26.025,32.030 C35.144,27.710 40.784,19.671 40.784,10.911 C40.784,4.431 37.064,-0.008 31.664,-0.008 C27.104,-0.008 23.505,3.351 23.505,7.791 C23.505,11.151 25.665,13.911 28.904,14.751 C32.624,15.591 32.744,15.711 32.744,17.631 C32.744,21.831 29.624,25.671 23.625,29.150 C23.625,29.150 26.025,32.030 26.025,32.030 Z" id="icon_quote2-10" class="icon_quote2-10" fill-rule="evenodd"/>
</svg>
