<svg xmlns="http://www.w3.org/2000/svg" xmlns:xlink="http://www.w3.org/1999/xlink" preserveAspectRatio="xMidYMid" viewBox="0 0 58 57">
  <path d="M50.396,44.535 C50.396,44.535 50.396,36.186 50.396,36.186 C50.396,36.186 57.398,36.186 57.398,36.186 C57.398,36.186 57.398,44.535 57.398,44.535 C57.398,44.535 50.396,44.535 50.396,44.535 ZM34.430,56.049 C31.031,56.049 28.302,55.116 26.241,53.251 C24.180,51.386 23.063,48.715 22.887,45.238 C22.418,45.316 21.964,45.370 21.524,45.399 C21.085,45.429 20.660,45.443 20.250,45.443 C17.183,45.443 14.395,44.935 11.886,43.920 C9.376,42.905 7.242,41.430 5.484,39.496 C3.727,37.563 2.374,35.189 1.427,32.377 C0.479,29.564 0.006,26.352 0.006,22.738 C0.006,19.184 0.475,15.995 1.412,13.173 C2.350,10.351 3.716,7.934 5.514,5.922 C7.232,4.008 9.366,2.543 11.915,1.527 C14.464,0.512 17.242,0.004 20.250,0.004 C23.375,0.004 26.183,0.517 28.673,1.542 C31.163,2.567 33.277,4.028 35.016,5.922 C36.793,7.875 38.155,10.268 39.103,13.100 C40.050,15.932 40.523,19.145 40.523,22.738 C40.523,28.070 39.434,32.563 37.257,36.215 C35.079,39.867 32.154,42.426 28.482,43.891 C28.560,46.117 29.088,47.846 30.064,49.076 C31.041,50.307 32.818,50.922 35.396,50.922 C36.197,50.922 37.149,50.800 38.253,50.556 C39.356,50.311 40.143,50.091 40.611,49.896 C40.611,49.896 41.402,49.896 41.402,49.896 C41.402,49.896 41.402,55.229 41.402,55.229 C40.230,55.521 39.073,55.731 37.931,55.858 C36.788,55.985 35.621,56.049 34.430,56.049 ZM30.636,35.878 C33.204,32.841 34.488,28.461 34.488,22.738 C34.488,17.074 33.218,12.704 30.680,9.628 C28.140,6.552 24.674,5.014 20.279,5.014 C15.845,5.014 12.364,6.552 9.835,9.628 C7.305,12.704 6.041,17.074 6.041,22.738 C6.041,28.461 7.330,32.841 9.908,35.878 C12.486,38.915 15.943,40.434 20.279,40.434 C24.615,40.434 28.067,38.915 30.636,35.878 Z" id="icon_q-8" class="icon_q-8" fill-rule="evenodd"/>
</svg>
