<svg xmlns="http://www.w3.org/2000/svg" xmlns:xlink="http://www.w3.org/1999/xlink" preserveAspectRatio="xMidYMid" viewBox="0 0 41 32">
  <path d="M14.751,-0.015 C5.511,4.305 -0.009,12.345 -0.009,21.225 C-0.009,27.464 3.831,32.024 9.111,32.024 C13.671,32.024 17.271,28.664 17.271,24.224 C17.271,20.865 15.111,18.105 11.871,17.265 C8.151,16.425 8.031,16.305 8.031,14.385 C8.031,10.185 11.151,6.225 17.151,2.865 C17.151,2.865 14.751,-0.015 14.751,-0.015 ZM38.270,-0.015 C29.030,4.305 23.510,12.345 23.510,21.225 C23.510,27.464 27.350,32.024 32.630,32.024 C37.190,32.024 40.790,28.664 40.790,24.224 C40.790,20.865 38.630,18.105 35.390,17.265 C31.670,16.425 31.550,16.305 31.550,14.385 C31.550,10.185 34.670,6.225 40.670,2.865 C40.670,2.865 38.270,-0.015 38.270,-0.015 Z" id="icon_quote1-9" class="icon_quote1-9" fill-rule="evenodd"/>
</svg>
