<svg xmlns="http://www.w3.org/2000/svg" xmlns:xlink="http://www.w3.org/1999/xlink" preserveAspectRatio="xMidYMid" viewBox="0 0 52 45">
  <path d="M-0.000,45.000 C-0.000,45.000 -0.000,41.000 -0.000,41.000 C-0.000,41.000 52.000,41.000 52.000,41.000 C52.000,41.000 52.000,45.000 52.000,45.000 C52.000,45.000 -0.000,45.000 -0.000,45.000 ZM35.000,20.000 C35.000,20.000 49.000,20.000 49.000,20.000 C49.000,20.000 49.000,39.000 49.000,39.000 C49.000,39.000 35.000,39.000 35.000,39.000 C35.000,39.000 35.000,20.000 35.000,20.000 ZM19.000,0.000 C19.000,0.000 33.000,0.000 33.000,0.000 C33.000,0.000 33.000,39.000 33.000,39.000 C33.000,39.000 19.000,39.000 19.000,39.000 C19.000,39.000 19.000,0.000 19.000,0.000 ZM3.000,12.000 C3.000,12.000 17.000,12.000 17.000,12.000 C17.000,12.000 17.000,39.000 17.000,39.000 C17.000,39.000 3.000,39.000 3.000,39.000 C3.000,39.000 3.000,12.000 3.000,12.000 Z" id="icon_poll-7" class="icon_poll-7" fill-rule="evenodd"/>
</svg>
