<svg xmlns="http://www.w3.org/2000/svg" xmlns:xlink="http://www.w3.org/1999/xlink" preserveAspectRatio="xMidYMid"  viewBox="0 0 90 64">

  <g id="face">
    <path d="M3.113,26.631 C3.113,26.631 1.562,30.215 1.562,30.215 C1.562,30.215 0.527,33.287 0.527,33.287 C0.527,33.287 0.527,35.846 0.527,35.846 C0.527,35.846 0.010,38.918 0.010,38.918 C0.010,38.918 1.044,40.966 1.044,40.966 C1.044,40.966 2.596,43.526 2.596,43.526 C2.596,43.526 4.664,45.574 4.664,45.574 C4.664,45.574 6.215,47.621 6.215,47.621 C6.215,47.621 7.767,48.133 7.767,48.133 C7.767,48.133 9.318,49.157 9.318,49.157 C9.318,49.157 10.352,49.669 10.352,49.669 C10.352,49.669 10.352,51.717 10.352,51.717 C10.352,51.717 11.386,53.765 11.386,53.765 C11.386,53.765 12.938,56.325 12.938,56.325 C12.938,56.325 15.523,58.885 15.523,58.885 C15.523,58.885 17.075,59.397 17.075,59.397 C17.075,59.397 18.626,60.420 18.626,60.420 C18.626,60.420 20.694,60.420 20.694,60.420 C20.694,60.420 24.314,60.420 24.314,60.420 C24.314,60.420 26.383,60.420 26.383,60.420 C26.383,60.420 27.934,60.420 27.934,60.420 C27.934,60.420 29.485,59.908 29.485,59.908 C29.485,59.908 31.036,59.397 31.036,59.397 C31.036,59.397 32.588,59.397 32.588,59.397 C32.588,59.397 34.656,60.932 34.656,60.932 C34.656,60.932 37.242,61.956 37.242,61.956 C37.242,61.956 39.827,62.980 39.827,62.980 C39.827,62.980 41.896,63.492 41.896,63.492 C41.896,63.492 44.481,64.004 44.481,64.004 C44.481,64.004 47.067,64.004 47.067,64.004 C47.067,64.004 48.618,63.492 48.618,63.492 C48.618,63.492 50.686,63.492 50.686,63.492 C50.686,63.492 52.238,62.468 52.238,62.468 C52.238,62.468 53.272,60.932 53.272,60.932 C53.272,60.932 54.823,59.908 54.823,59.908 C54.823,59.908 56.375,58.885 56.375,58.885 C56.375,58.885 56.892,58.373 56.892,58.373 C56.892,58.373 59.477,59.397 59.477,59.397 C59.477,59.397 62.063,59.908 62.063,59.908 C62.063,59.908 65.682,60.420 65.682,60.420 C65.682,60.420 67.751,59.397 67.751,59.397 C67.751,59.397 70.336,59.397 70.336,59.397 C70.336,59.397 72.922,58.373 72.922,58.373 C72.922,58.373 74.990,56.837 74.990,56.837 C74.990,56.837 76.542,55.301 76.542,55.301 C76.542,55.301 78.093,54.277 78.093,54.277 C78.093,54.277 79.127,52.741 79.127,52.741 C79.127,52.741 79.127,51.205 79.127,51.205 C79.127,51.205 80.161,50.181 80.161,50.181 C80.161,50.181 81.713,49.669 81.713,49.669 C81.713,49.669 83.264,48.645 83.264,48.645 C83.264,48.645 86.367,45.574 86.367,45.574 C86.367,45.574 88.435,43.014 88.435,43.014 C88.435,43.014 89.986,40.966 89.986,40.966 C89.986,40.966 89.986,39.430 89.986,39.430 C89.986,39.430 89.986,37.894 89.986,37.894 C89.986,37.894 89.469,36.870 89.469,36.870 C89.469,36.870 87.401,35.846 87.401,35.846 C87.401,35.846 85.332,34.310 85.332,34.310 C85.332,34.310 84.298,33.798 84.298,33.798 C84.298,33.798 83.264,33.798 83.264,33.798 C83.264,33.798 84.298,32.775 84.298,32.775 C84.298,32.775 86.367,31.239 86.367,31.239 C86.367,31.239 87.918,29.191 87.918,29.191 C87.918,29.191 88.952,26.631 88.952,26.631 C88.952,26.631 89.469,24.071 89.469,24.071 C89.469,24.071 89.469,20.999 89.469,20.999 C89.469,20.999 88.435,19.464 88.435,19.464 C88.435,19.464 86.884,18.440 86.884,18.440 C86.884,18.440 85.332,17.416 85.332,17.416 C85.332,17.416 84.815,16.904 84.815,16.904 C84.815,16.904 84.298,14.344 84.298,14.344 C84.298,14.344 82.747,12.296 82.747,12.296 C82.747,12.296 80.678,10.248 80.678,10.248 C80.678,10.248 79.127,9.224 79.127,9.224 C79.127,9.224 78.093,8.712 78.093,8.712 C78.093,8.712 76.025,7.688 76.025,7.688 C76.025,7.688 74.473,7.177 74.473,7.177 C74.473,7.177 71.888,7.177 71.888,7.177 C71.888,7.177 69.819,7.177 69.819,7.177 C69.819,7.177 67.234,6.665 67.234,6.665 C67.234,6.665 65.682,5.129 65.682,5.129 C65.682,5.129 63.614,3.081 63.614,3.081 C63.614,3.081 62.063,2.569 62.063,2.569 C62.063,2.569 60.511,2.057 60.511,2.057 C60.511,2.057 58.443,1.545 58.443,1.545 C58.443,1.545 56.375,0.521 56.375,0.521 C56.375,0.521 54.823,0.009 54.823,0.009 C54.823,0.009 50.686,0.009 50.686,0.009 C50.686,0.009 48.101,0.009 48.101,0.009 C48.101,0.009 44.481,0.521 44.481,0.521 C44.481,0.521 43.474,0.848 42.930,1.033 C42.386,1.218 39.827,2.057 39.827,2.057 C39.827,2.057 37.242,2.569 37.242,2.569 C37.242,2.569 35.690,3.081 35.690,3.081 C35.690,3.081 34.656,3.593 34.656,3.593 C34.656,3.593 32.071,2.569 32.071,2.569 C32.071,2.569 28.968,2.569 28.968,2.569 C28.968,2.569 25.348,3.593 25.348,3.593 C25.348,3.593 21.729,5.129 21.729,5.129 C21.729,5.129 19.143,7.177 19.143,7.177 C19.143,7.177 17.075,8.712 17.075,8.712 C17.075,8.712 13.455,9.224 13.455,9.224 C13.455,9.224 9.318,11.272 9.318,11.272 C9.318,11.272 7.250,13.832 7.250,13.832 C7.250,13.832 4.664,16.904 4.664,16.904 C4.664,16.904 3.113,19.464 3.113,19.464 C3.113,19.464 2.079,21.511 2.079,21.511 C2.079,21.511 2.596,23.047 2.596,23.047 C2.596,23.047 2.596,24.071 2.596,24.071 C2.596,24.071 3.113,26.631 3.113,26.631 Z" id="logo_mob-1" class="logo_mob-3" fill-rule="evenodd"/>
    <path d="M4.281,23.178 C4.281,23.178 5.813,22.667 5.813,22.667 C5.813,22.667 6.323,23.688 6.323,23.688 C6.323,23.688 6.323,25.220 6.323,25.220 C6.323,25.220 4.792,26.751 4.792,26.751 C4.792,26.751 4.281,28.793 4.281,28.793 C4.281,28.793 3.260,31.856 3.260,31.856 C3.260,31.856 2.750,35.429 2.750,35.429 C2.750,35.429 2.750,39.002 2.750,39.002 C2.750,39.002 3.260,41.044 3.260,41.044 C3.260,41.044 4.281,42.575 4.281,42.575 C4.281,42.575 6.323,45.128 6.323,45.128 C6.323,45.128 8.365,46.148 8.365,46.148 C8.365,46.148 9.896,46.148 9.896,46.148 C9.896,46.148 10.407,45.128 10.407,45.128 C10.407,45.128 10.917,45.128 10.917,45.128 C10.917,45.128 11.428,45.638 11.428,45.638 C11.428,45.638 11.428,47.169 11.428,47.169 C11.428,47.169 11.428,49.211 11.428,49.211 C11.428,49.211 12.959,52.274 12.959,52.274 C12.959,52.274 15.001,54.826 15.001,54.826 C15.001,54.826 16.532,56.868 16.532,56.868 C16.532,56.868 18.064,56.868 18.064,56.868 C18.064,56.868 20.106,57.379 20.106,57.379 C20.106,57.379 22.147,57.889 22.147,57.889 C22.147,57.889 24.189,57.889 24.189,57.889 C24.189,57.889 26.231,57.889 26.231,57.889 C26.231,57.889 27.762,57.379 27.762,57.379 C27.762,57.379 29.804,57.379 29.804,57.379 C29.804,57.379 31.846,56.868 31.846,56.868 C31.846,56.868 33.378,56.358 33.378,56.358 C33.378,56.358 34.398,55.847 34.398,55.847 C34.398,55.847 35.419,55.847 35.419,55.847 C35.419,55.847 35.419,56.868 35.419,56.868 C35.419,56.868 34.909,57.889 34.909,57.889 C34.909,57.889 33.888,58.400 33.888,58.400 C33.888,58.400 34.909,58.910 34.909,58.910 C34.909,58.910 36.440,59.420 36.440,59.420 C36.440,59.420 38.482,60.441 38.482,60.441 C38.482,60.441 40.524,60.952 40.524,60.952 C40.524,60.952 42.566,61.973 42.566,61.973 C42.566,61.973 45.629,61.462 45.629,61.462 C45.629,61.462 47.670,60.952 47.670,60.952 C47.670,60.952 50.223,60.441 50.223,60.441 C50.223,60.441 52.265,58.910 52.265,58.910 C52.265,58.910 53.286,57.889 53.286,57.889 C53.286,57.889 53.796,57.379 53.796,57.379 C53.796,57.379 52.775,57.379 52.775,57.379 C52.775,57.379 52.775,56.358 52.775,56.358 C52.775,56.358 53.286,55.337 53.286,55.337 C53.286,55.337 54.306,55.847 54.306,55.847 C54.306,55.847 54.817,56.358 54.817,56.358 C54.817,56.358 55.838,56.358 55.838,56.358 C55.838,56.358 56.348,55.337 56.348,55.337 C56.348,55.337 57.880,54.826 57.880,54.826 C57.880,54.826 58.390,55.847 58.390,55.847 C58.390,55.847 57.369,56.358 57.369,56.358 C57.369,56.358 57.369,56.868 57.369,56.868 C57.369,56.868 59.922,57.889 59.922,57.889 C59.922,57.889 62.984,57.889 62.984,57.889 C62.984,57.889 66.047,57.889 66.047,57.889 C66.047,57.889 68.599,57.379 68.599,57.379 C68.599,57.379 70.641,56.358 70.641,56.358 C70.641,56.358 73.194,54.826 73.194,54.826 C73.194,54.826 75.235,53.805 75.235,53.805 C75.235,53.805 76.256,52.274 76.256,52.274 C76.256,52.274 76.256,51.253 76.256,51.253 C76.256,51.253 75.235,51.253 75.235,51.253 C75.235,51.253 75.235,50.232 75.235,50.232 C75.235,50.232 76.767,49.722 76.767,49.722 C76.767,49.722 77.788,49.722 77.788,49.722 C77.788,49.722 79.319,48.701 79.319,48.701 C79.319,48.701 81.361,47.680 81.361,47.680 C81.361,47.680 82.892,46.148 82.892,46.148 C82.892,46.148 84.934,44.107 84.934,44.107 C84.934,44.107 86.465,42.065 86.465,42.065 C86.465,42.065 87.486,40.023 87.486,40.023 C87.486,40.023 86.976,38.492 86.976,38.492 C86.976,38.492 86.465,36.960 86.465,36.960 C86.465,36.960 83.913,35.429 83.913,35.429 C83.913,35.429 81.871,34.408 81.871,34.408 C81.871,34.408 80.340,33.387 80.340,33.387 C80.340,33.387 80.340,32.366 80.340,32.366 C80.340,32.366 81.871,31.345 81.871,31.345 C81.871,31.345 83.913,29.814 83.913,29.814 C83.913,29.814 85.445,27.261 85.445,27.261 C85.445,27.261 86.465,25.730 86.465,25.730 C86.465,25.730 86.976,23.688 86.976,23.688 C86.976,23.688 86.465,21.646 86.465,21.646 C86.465,21.646 85.445,19.605 85.445,19.605 C85.445,19.605 83.403,18.584 83.403,18.584 C83.403,18.584 82.382,17.563 82.382,17.563 C82.382,17.563 81.361,17.563 81.361,17.563 C81.361,17.563 81.361,16.542 81.361,16.542 C81.361,16.542 82.382,16.542 82.382,16.542 C82.382,16.542 81.871,14.500 81.871,14.500 C81.871,14.500 80.340,12.969 80.340,12.969 C80.340,12.969 79.319,11.948 79.319,11.948 C79.319,11.948 78.298,11.437 78.298,11.437 C78.298,11.437 75.746,9.906 75.746,9.906 C75.746,9.906 73.194,9.395 73.194,9.395 C73.194,9.395 70.641,8.885 70.641,8.885 C70.641,8.885 67.068,8.885 67.068,8.885 C67.068,8.885 65.026,8.885 65.026,8.885 C65.026,8.885 63.495,9.395 63.495,9.395 C63.495,9.395 61.963,8.885 61.963,8.885 C61.963,8.885 61.963,7.864 61.963,7.864 C61.963,7.864 63.495,7.864 63.495,7.864 C63.495,7.864 64.005,7.353 64.005,7.353 C64.005,7.353 61.453,5.312 61.453,5.312 C61.453,5.312 57.880,3.270 57.880,3.270 C57.880,3.270 54.306,2.759 54.306,2.759 C54.306,2.759 51.754,2.249 51.754,2.249 C51.754,2.249 48.181,2.249 48.181,2.249 C48.181,2.249 45.629,2.249 45.629,2.249 C45.629,2.249 42.566,2.759 42.566,2.759 C42.566,2.759 38.482,3.780 38.482,3.780 C38.482,3.780 35.419,5.312 35.419,5.312 C35.419,5.312 33.378,5.822 33.378,5.822 C33.378,5.822 31.336,6.843 31.336,6.843 C31.336,6.843 29.804,7.864 29.804,7.864 C29.804,7.864 29.294,8.374 29.294,8.374 C29.294,8.374 28.273,7.864 28.273,7.864 C28.273,7.864 28.783,6.333 28.783,6.333 C28.783,6.333 30.315,5.822 30.315,5.822 C30.315,5.822 30.825,4.801 30.825,4.801 C30.825,4.801 27.252,4.801 27.252,4.801 C27.252,4.801 23.679,5.822 23.679,5.822 C23.679,5.822 22.147,6.333 22.147,6.333 C22.147,6.333 20.106,7.353 20.106,7.353 C20.106,7.353 20.106,8.374 20.106,8.374 C20.106,8.374 20.616,8.885 20.616,8.885 C20.616,8.885 21.126,9.906 21.126,9.906 C21.126,9.906 18.064,9.906 18.064,9.906 C18.064,9.906 17.043,10.927 17.043,10.927 C17.043,10.927 16.532,11.437 16.532,11.437 C16.532,11.437 15.511,10.927 15.511,10.927 C15.511,10.927 15.511,9.906 15.511,9.906 C15.511,9.906 12.959,11.437 12.959,11.437 C12.959,11.437 10.407,12.458 10.407,12.458 C10.407,12.458 8.365,14.500 8.365,14.500 C8.365,14.500 6.323,16.542 6.323,16.542 C6.323,16.542 5.302,18.584 5.302,18.584 C5.302,18.584 5.302,20.115 5.302,20.115 C5.302,20.115 4.792,21.646 4.792,21.646 C4.792,21.646 4.281,23.178 4.281,23.178 Z" id="logo_mob-2" class="logo_mob-4" fill-rule="evenodd"/>
    <path d="M46.118,22.157 C46.118,22.157 46.118,23.178 46.118,23.178 C46.118,23.178 47.139,24.199 47.139,24.199 C47.139,24.199 48.160,25.220 48.160,25.220 C48.160,25.220 49.691,25.730 49.691,25.730 C49.691,25.730 51.733,26.241 51.733,26.241 C51.733,26.241 53.775,26.241 53.775,26.241 C53.775,26.241 55.817,26.241 55.817,26.241 C55.817,26.241 57.859,26.241 57.859,26.241 C57.859,26.241 59.901,26.241 59.901,26.241 C59.901,26.241 60.922,25.730 60.922,25.730 C60.922,25.730 62.453,25.730 62.453,25.730 C62.453,25.730 63.984,25.730 63.984,25.730 C63.984,25.730 65.516,25.220 65.516,25.220 C65.516,25.220 67.047,24.709 67.047,24.709 C67.047,24.709 68.068,24.709 68.068,24.709 C68.068,24.709 69.599,24.199 69.599,24.199 C69.599,24.199 71.641,23.688 71.641,23.688 C71.641,23.688 73.683,23.178 73.683,23.178 C73.683,23.178 75.214,22.157 75.214,22.157 C75.214,22.157 76.746,21.646 76.746,21.646 C76.746,21.646 77.256,21.136 77.256,21.136 C77.256,21.136 76.746,20.115 76.746,20.115 C76.746,20.115 76.235,19.605 76.235,19.605 C76.235,19.605 74.194,18.584 74.194,18.584 C74.194,18.584 72.662,17.563 72.662,17.563 C72.662,17.563 70.110,17.052 70.110,17.052 C70.110,17.052 68.068,16.542 68.068,16.542 C68.068,16.542 65.005,16.031 65.005,16.031 C65.005,16.031 61.432,15.521 61.432,15.521 C61.432,15.521 58.369,15.521 58.369,15.521 C58.369,15.521 55.817,15.521 55.817,15.521 C55.817,15.521 53.775,16.031 53.775,16.031 C53.775,16.031 51.733,17.052 51.733,17.052 C51.733,17.052 49.691,18.073 49.691,18.073 C49.691,18.073 48.160,19.094 48.160,19.094 C48.160,19.094 47.139,20.115 47.139,20.115 C47.139,20.115 46.629,21.136 46.629,21.136 C46.629,21.136 46.118,22.157 46.118,22.157 Z" id="logo_mob-3" class="logo_mob-5" fill-rule="evenodd"/>
    <path d="M17.022,36.960 C17.022,36.960 19.574,34.408 19.574,34.408 C19.574,34.408 21.106,34.408 21.106,34.408 C21.106,34.408 23.147,32.877 23.147,32.877 C23.147,32.877 23.658,32.877 23.658,32.877 C23.658,32.877 26.210,34.918 26.210,34.918 C26.210,34.918 28.762,35.429 28.762,35.429 C28.762,35.429 33.357,33.897 33.357,33.897 C33.357,33.897 35.398,33.897 35.398,33.897 C35.398,33.897 39.993,36.450 39.993,36.450 C39.993,36.450 46.118,36.960 46.118,36.960 C46.118,36.960 49.181,35.429 49.181,35.429 C49.181,35.429 56.838,35.939 56.838,35.939 C56.838,35.939 63.984,35.939 63.984,35.939 C63.984,35.939 68.578,33.897 68.578,33.897 C68.578,33.897 70.620,32.877 70.620,32.877 C70.620,32.877 71.641,32.877 71.641,32.877 C71.641,32.877 71.641,33.897 71.641,33.897 C71.641,33.897 70.620,34.408 70.620,34.408 C70.620,34.408 69.089,35.429 69.089,35.429 C69.089,35.429 69.089,36.450 69.089,36.450 C69.089,36.450 70.110,39.512 70.110,39.512 C70.110,39.512 69.599,41.044 69.599,41.044 C69.599,41.044 59.390,45.128 59.390,45.128 C59.390,45.128 55.306,46.148 55.306,46.148 C55.306,46.148 51.223,46.659 51.223,46.659 C51.223,46.659 47.650,47.680 47.650,47.680 C47.650,47.680 44.076,47.680 44.076,47.680 C44.076,47.680 41.014,47.680 41.014,47.680 C41.014,47.680 36.930,48.701 36.930,48.701 C36.930,48.701 33.867,49.722 33.867,49.722 C33.867,49.722 31.825,50.232 31.825,50.232 C31.825,50.232 30.294,49.722 30.294,49.722 C30.294,49.722 28.252,47.680 28.252,47.680 C28.252,47.680 26.210,44.617 26.210,44.617 C26.210,44.617 25.189,42.575 25.189,42.575 C25.189,42.575 23.658,41.554 23.658,41.554 C23.658,41.554 22.126,41.044 22.126,41.044 C22.126,41.044 20.085,39.002 20.085,39.002 C20.085,39.002 19.064,38.492 19.064,38.492 C19.064,38.492 17.532,37.981 17.532,37.981 C17.532,37.981 17.022,36.960 17.022,36.960 Z" id="logo_mob-4" class="logo_mob-6" fill-rule="evenodd"/>
    <path d="M15.490,22.667 C15.490,22.667 17.022,24.199 17.022,24.199 C17.022,24.199 19.574,25.220 19.574,25.220 C19.574,25.220 22.126,25.730 22.126,25.730 C22.126,25.730 25.189,25.730 25.189,25.730 C25.189,25.730 28.252,25.730 28.252,25.730 C28.252,25.730 30.294,25.730 30.294,25.730 C30.294,25.730 32.846,25.730 32.846,25.730 C32.846,25.730 34.888,25.730 34.888,25.730 C34.888,25.730 36.419,25.220 36.419,25.220 C36.419,25.220 38.461,24.199 38.461,24.199 C38.461,24.199 40.503,23.688 40.503,23.688 C40.503,23.688 42.545,22.157 42.545,22.157 C42.545,22.157 44.076,20.625 44.076,20.625 C44.076,20.625 44.076,19.605 44.076,19.605 C44.076,19.605 43.055,18.073 43.055,18.073 C43.055,18.073 41.524,17.052 41.524,17.052 C41.524,17.052 39.482,16.542 39.482,16.542 C39.482,16.542 36.930,16.031 36.930,16.031 C36.930,16.031 33.357,15.521 33.357,15.521 C33.357,15.521 30.804,15.521 30.804,15.521 C30.804,15.521 29.273,15.010 29.273,15.010 C29.273,15.010 26.721,15.010 26.721,15.010 C26.721,15.010 24.168,15.521 24.168,15.521 C24.168,15.521 22.126,16.542 22.126,16.542 C22.126,16.542 19.574,17.563 19.574,17.563 C19.574,17.563 18.043,19.094 18.043,19.094 C18.043,19.094 17.022,20.115 17.022,20.115 C17.022,20.115 16.001,21.136 16.001,21.136 C16.001,21.136 15.490,22.667 15.490,22.667 Z" id="logo_mob-5" class="logo_mob-5" fill-rule="evenodd"/>
    <path d="M24.679,17.052 C24.679,17.052 22.126,18.073 22.126,18.073 C22.126,18.073 20.595,19.094 20.595,19.094 C20.595,19.094 19.064,20.625 19.064,20.625 C19.064,20.625 18.043,21.136 18.043,21.136 C18.043,21.136 17.532,22.157 17.532,22.157 C17.532,22.157 17.532,22.667 17.532,22.667 C17.532,22.667 18.553,23.178 18.553,23.178 C18.553,23.178 19.574,23.178 19.574,23.178 C19.574,23.178 21.106,23.688 21.106,23.688 C21.106,23.688 22.637,24.199 22.637,24.199 C22.637,24.199 24.168,24.199 24.168,24.199 C24.168,24.199 24.168,22.157 24.168,22.157 C24.168,22.157 24.168,20.625 24.168,20.625 C24.168,20.625 24.168,19.094 24.168,19.094 C24.168,19.094 24.679,18.073 24.679,18.073 C24.679,18.073 25.189,17.563 25.189,17.563 C25.189,17.563 24.679,17.052 24.679,17.052 Z" id="logo_mob-6" class="logo_mob-8" fill-rule="evenodd"/>
    <path d="M38.972,18.073 C38.972,18.073 39.482,19.094 39.482,19.094 C39.482,19.094 39.993,20.115 39.993,20.115 C39.993,20.115 39.993,21.136 39.993,21.136 C39.993,21.136 39.993,22.157 39.993,22.157 C39.993,22.157 41.014,21.646 41.014,21.646 C41.014,21.646 41.524,21.136 41.524,21.136 C41.524,21.136 41.524,20.115 41.524,20.115 C41.524,20.115 41.014,19.605 41.014,19.605 C41.014,19.605 39.993,18.584 39.993,18.584 C39.993,18.584 38.972,18.073 38.972,18.073 Z" id="logo_mob-7" class="logo_mob-8" fill-rule="evenodd"/>
    <path d="M51.733,18.584 C51.733,18.584 48.670,20.115 48.670,20.115 C48.670,20.115 48.160,21.136 48.160,21.136 C48.160,21.136 47.650,22.157 47.650,22.157 C47.650,22.157 48.160,23.178 48.160,23.178 C48.160,23.178 49.181,24.199 49.181,24.199 C49.181,24.199 50.712,24.199 50.712,24.199 C50.712,24.199 51.733,24.709 51.733,24.709 C51.733,24.709 52.754,24.709 52.754,24.709 C52.754,24.709 54.286,24.709 54.286,24.709 C54.286,24.709 53.775,23.688 53.775,23.688 C53.775,23.688 53.775,22.157 53.775,22.157 C53.775,22.157 53.775,20.625 53.775,20.625 C53.775,20.625 54.286,19.094 54.286,19.094 C54.286,19.094 54.796,18.584 54.796,18.584 C54.796,18.584 54.796,18.073 54.796,18.073 C54.796,18.073 54.796,17.563 54.796,17.563 C54.796,17.563 53.265,17.563 53.265,17.563 C53.265,17.563 51.733,18.584 51.733,18.584 Z" id="logo_mob-8" class="logo_mob-10" fill-rule="evenodd"/>
    <path d="M69.089,18.584 C69.089,18.584 69.089,19.605 69.089,19.605 C69.089,19.605 69.089,21.136 69.089,21.136 C69.089,21.136 68.578,22.157 68.578,22.157 C68.578,22.157 68.578,23.178 68.578,23.178 C68.578,23.178 70.110,22.667 70.110,22.667 C70.110,22.667 71.131,22.157 71.131,22.157 C71.131,22.157 72.662,22.157 72.662,22.157 C72.662,22.157 73.683,21.646 73.683,21.646 C73.683,21.646 74.704,21.136 74.704,21.136 C74.704,21.136 74.704,20.625 74.704,20.625 C74.704,20.625 73.173,20.115 73.173,20.115 C73.173,20.115 71.131,19.094 71.131,19.094 C71.131,19.094 70.110,18.584 70.110,18.584 C70.110,18.584 69.089,18.584 69.089,18.584 Z" id="logo_mob-9" class="logo_mob-10" fill-rule="evenodd"/>
    <path d="M25.189,17.052 C25.189,17.052 23.658,17.052 23.658,17.052 C23.658,17.052 22.126,17.563 22.126,17.563 C22.126,17.563 21.106,18.584 21.106,18.584 C21.106,18.584 19.574,19.605 19.574,19.605 C19.574,19.605 18.043,21.136 18.043,21.136 C18.043,21.136 17.532,22.157 17.532,22.157 C17.532,22.157 18.043,22.667 18.043,22.667 C18.043,22.667 19.064,23.178 19.064,23.178 C19.064,23.178 20.085,23.178 20.085,23.178 C20.085,23.178 21.106,23.688 21.106,23.688 C21.106,23.688 22.637,24.199 22.637,24.199 C22.637,24.199 24.168,24.709 24.168,24.709 C24.168,24.709 23.658,23.178 23.658,23.178 C23.658,23.178 23.658,21.136 23.658,21.136 C23.658,21.136 24.168,19.094 24.168,19.094 C24.168,19.094 24.679,18.073 24.679,18.073 C24.679,18.073 25.189,17.052 25.189,17.052 Z" id="logo_mob-10" class="logo_mob-10" fill-rule="evenodd"/>
    <path d="M38.972,18.073 C38.972,18.073 39.482,19.094 39.482,19.094 C39.482,19.094 39.993,20.625 39.993,20.625 C39.993,20.625 39.993,21.646 39.993,21.646 C39.993,21.646 39.993,22.157 39.993,22.157 C39.993,22.157 41.014,21.646 41.014,21.646 C41.014,21.646 41.524,20.625 41.524,20.625 C41.524,20.625 41.524,20.115 41.524,20.115 C41.524,20.115 41.014,19.094 41.014,19.094 C41.014,19.094 39.993,18.584 39.993,18.584 C39.993,18.584 38.972,18.073 38.972,18.073 Z" id="logo_mob-11" class="logo_mob-10" fill-rule="evenodd"/>
  </g>
</svg>
