<svg xmlns="http://www.w3.org/2000/svg" xmlns:xlink="http://www.w3.org/1999/xlink" preserveAspectRatio="xMidYMid"  viewBox="0 0 422 125">
  <g id="logo_full">
    <rect id="rect-1" class="logo_full-3" x="97" y="26" width="325" height="75"/>
    <text class="logo_full-4" x="183px" y="72px"><tspan class="logo_full-5">hey no way</tspan></text>
    <g id="face">
      <path d="M6.000,52.000 C6.000,52.000 3.000,59.000 3.000,59.000 C3.000,59.000 1.000,65.000 1.000,65.000 C1.000,65.000 1.000,70.000 1.000,70.000 C1.000,70.000 0.000,76.000 0.000,76.000 C0.000,76.000 2.000,80.000 2.000,80.000 C2.000,80.000 5.000,85.000 5.000,85.000 C5.000,85.000 9.000,89.000 9.000,89.000 C9.000,89.000 12.000,93.000 12.000,93.000 C12.000,93.000 15.000,94.000 15.000,94.000 C15.000,94.000 18.000,96.000 18.000,96.000 C18.000,96.000 20.000,97.000 20.000,97.000 C20.000,97.000 20.000,101.000 20.000,101.000 C20.000,101.000 22.000,105.000 22.000,105.000 C22.000,105.000 25.000,110.000 25.000,110.000 C25.000,110.000 30.000,115.000 30.000,115.000 C30.000,115.000 33.000,116.000 33.000,116.000 C33.000,116.000 36.000,118.000 36.000,118.000 C36.000,118.000 40.000,118.000 40.000,118.000 C40.000,118.000 47.000,118.000 47.000,118.000 C47.000,118.000 51.000,118.000 51.000,118.000 C51.000,118.000 54.000,118.000 54.000,118.000 C54.000,118.000 57.000,117.000 57.000,117.000 C57.000,117.000 60.000,116.000 60.000,116.000 C60.000,116.000 63.000,116.000 63.000,116.000 C63.000,116.000 67.000,119.000 67.000,119.000 C67.000,119.000 72.000,121.000 72.000,121.000 C72.000,121.000 77.000,123.000 77.000,123.000 C77.000,123.000 81.000,124.000 81.000,124.000 C81.000,124.000 86.000,125.000 86.000,125.000 C86.000,125.000 91.000,125.000 91.000,125.000 C91.000,125.000 94.000,124.000 94.000,124.000 C94.000,124.000 98.000,124.000 98.000,124.000 C98.000,124.000 101.000,122.000 101.000,122.000 C101.000,122.000 103.000,119.000 103.000,119.000 C103.000,119.000 106.000,117.000 106.000,117.000 C106.000,117.000 109.000,115.000 109.000,115.000 C109.000,115.000 110.000,114.000 110.000,114.000 C110.000,114.000 115.000,116.000 115.000,116.000 C115.000,116.000 120.000,117.000 120.000,117.000 C120.000,117.000 127.000,118.000 127.000,118.000 C127.000,118.000 131.000,116.000 131.000,116.000 C131.000,116.000 136.000,116.000 136.000,116.000 C136.000,116.000 141.000,114.000 141.000,114.000 C141.000,114.000 145.000,111.000 145.000,111.000 C145.000,111.000 148.000,108.000 148.000,108.000 C148.000,108.000 151.000,106.000 151.000,106.000 C151.000,106.000 153.000,103.000 153.000,103.000 C153.000,103.000 153.000,100.000 153.000,100.000 C153.000,100.000 155.000,98.000 155.000,98.000 C155.000,98.000 158.000,97.000 158.000,97.000 C158.000,97.000 161.000,95.000 161.000,95.000 C161.000,95.000 167.000,89.000 167.000,89.000 C167.000,89.000 171.000,84.000 171.000,84.000 C171.000,84.000 174.000,80.000 174.000,80.000 C174.000,80.000 174.000,77.000 174.000,77.000 C174.000,77.000 174.000,74.000 174.000,74.000 C174.000,74.000 173.000,72.000 173.000,72.000 C173.000,72.000 169.000,70.000 169.000,70.000 C169.000,70.000 165.000,67.000 165.000,67.000 C165.000,67.000 163.000,66.000 163.000,66.000 C163.000,66.000 161.000,66.000 161.000,66.000 C161.000,66.000 163.000,64.000 163.000,64.000 C163.000,64.000 167.000,61.000 167.000,61.000 C167.000,61.000 170.000,57.000 170.000,57.000 C170.000,57.000 172.000,52.000 172.000,52.000 C172.000,52.000 173.000,47.000 173.000,47.000 C173.000,47.000 173.000,41.000 173.000,41.000 C173.000,41.000 171.000,38.000 171.000,38.000 C171.000,38.000 168.000,36.000 168.000,36.000 C168.000,36.000 165.000,34.000 165.000,34.000 C165.000,34.000 164.000,33.000 164.000,33.000 C164.000,33.000 163.000,28.000 163.000,28.000 C163.000,28.000 160.000,24.000 160.000,24.000 C160.000,24.000 156.000,20.000 156.000,20.000 C156.000,20.000 153.000,18.000 153.000,18.000 C153.000,18.000 151.000,17.000 151.000,17.000 C151.000,17.000 147.000,15.000 147.000,15.000 C147.000,15.000 144.000,14.000 144.000,14.000 C144.000,14.000 139.000,14.000 139.000,14.000 C139.000,14.000 135.000,14.000 135.000,14.000 C135.000,14.000 130.000,13.000 130.000,13.000 C130.000,13.000 127.000,10.000 127.000,10.000 C127.000,10.000 123.000,6.000 123.000,6.000 C123.000,6.000 120.000,5.000 120.000,5.000 C120.000,5.000 117.000,4.000 117.000,4.000 C117.000,4.000 113.000,3.000 113.000,3.000 C113.000,3.000 109.000,1.000 109.000,1.000 C109.000,1.000 106.000,0.000 106.000,0.000 C106.000,0.000 98.000,0.000 98.000,0.000 C98.000,0.000 93.000,0.000 93.000,0.000 C93.000,0.000 86.000,1.000 86.000,1.000 C86.000,1.000 84.052,1.638 83.000,2.000 C81.948,2.362 77.000,4.000 77.000,4.000 C77.000,4.000 72.000,5.000 72.000,5.000 C72.000,5.000 69.000,6.000 69.000,6.000 C69.000,6.000 67.000,7.000 67.000,7.000 C67.000,7.000 62.000,5.000 62.000,5.000 C62.000,5.000 56.000,5.000 56.000,5.000 C56.000,5.000 49.000,7.000 49.000,7.000 C49.000,7.000 42.000,10.000 42.000,10.000 C42.000,10.000 37.000,14.000 37.000,14.000 C37.000,14.000 33.000,17.000 33.000,17.000 C33.000,17.000 26.000,18.000 26.000,18.000 C26.000,18.000 18.000,22.000 18.000,22.000 C18.000,22.000 14.000,27.000 14.000,27.000 C14.000,27.000 9.000,33.000 9.000,33.000 C9.000,33.000 6.000,38.000 6.000,38.000 C6.000,38.000 4.000,42.000 4.000,42.000 C4.000,42.000 5.000,45.000 5.000,45.000 C5.000,45.000 5.000,47.000 5.000,47.000 C5.000,47.000 6.000,52.000 6.000,52.000 Z" id="logo_full-1" class="logo_full-7" fill-rule="evenodd"/>
      <path d="M8.000,46.000 C8.000,46.000 11.000,45.000 11.000,45.000 C11.000,45.000 12.000,47.000 12.000,47.000 C12.000,47.000 12.000,50.000 12.000,50.000 C12.000,50.000 9.000,53.000 9.000,53.000 C9.000,53.000 8.000,57.000 8.000,57.000 C8.000,57.000 6.000,63.000 6.000,63.000 C6.000,63.000 5.000,70.000 5.000,70.000 C5.000,70.000 5.000,77.000 5.000,77.000 C5.000,77.000 6.000,81.000 6.000,81.000 C6.000,81.000 8.000,84.000 8.000,84.000 C8.000,84.000 12.000,89.000 12.000,89.000 C12.000,89.000 16.000,91.000 16.000,91.000 C16.000,91.000 19.000,91.000 19.000,91.000 C19.000,91.000 20.000,89.000 20.000,89.000 C20.000,89.000 21.000,89.000 21.000,89.000 C21.000,89.000 22.000,90.000 22.000,90.000 C22.000,90.000 22.000,93.000 22.000,93.000 C22.000,93.000 22.000,97.000 22.000,97.000 C22.000,97.000 25.000,103.000 25.000,103.000 C25.000,103.000 29.000,108.000 29.000,108.000 C29.000,108.000 32.000,112.000 32.000,112.000 C32.000,112.000 35.000,112.000 35.000,112.000 C35.000,112.000 39.000,113.000 39.000,113.000 C39.000,113.000 43.000,114.000 43.000,114.000 C43.000,114.000 47.000,114.000 47.000,114.000 C47.000,114.000 51.000,114.000 51.000,114.000 C51.000,114.000 54.000,113.000 54.000,113.000 C54.000,113.000 58.000,113.000 58.000,113.000 C58.000,113.000 62.000,112.000 62.000,112.000 C62.000,112.000 65.000,111.000 65.000,111.000 C65.000,111.000 67.000,110.000 67.000,110.000 C67.000,110.000 69.000,110.000 69.000,110.000 C69.000,110.000 69.000,112.000 69.000,112.000 C69.000,112.000 68.000,114.000 68.000,114.000 C68.000,114.000 66.000,115.000 66.000,115.000 C66.000,115.000 68.000,116.000 68.000,116.000 C68.000,116.000 71.000,117.000 71.000,117.000 C71.000,117.000 75.000,119.000 75.000,119.000 C75.000,119.000 79.000,120.000 79.000,120.000 C79.000,120.000 83.000,122.000 83.000,122.000 C83.000,122.000 89.000,121.000 89.000,121.000 C89.000,121.000 93.000,120.000 93.000,120.000 C93.000,120.000 98.000,119.000 98.000,119.000 C98.000,119.000 102.000,116.000 102.000,116.000 C102.000,116.000 104.000,114.000 104.000,114.000 C104.000,114.000 105.000,113.000 105.000,113.000 C105.000,113.000 103.000,113.000 103.000,113.000 C103.000,113.000 103.000,111.000 103.000,111.000 C103.000,111.000 104.000,109.000 104.000,109.000 C104.000,109.000 106.000,110.000 106.000,110.000 C106.000,110.000 107.000,111.000 107.000,111.000 C107.000,111.000 109.000,111.000 109.000,111.000 C109.000,111.000 110.000,109.000 110.000,109.000 C110.000,109.000 113.000,108.000 113.000,108.000 C113.000,108.000 114.000,110.000 114.000,110.000 C114.000,110.000 112.000,111.000 112.000,111.000 C112.000,111.000 112.000,112.000 112.000,112.000 C112.000,112.000 117.000,114.000 117.000,114.000 C117.000,114.000 123.000,114.000 123.000,114.000 C123.000,114.000 129.000,114.000 129.000,114.000 C129.000,114.000 134.000,113.000 134.000,113.000 C134.000,113.000 138.000,111.000 138.000,111.000 C138.000,111.000 143.000,108.000 143.000,108.000 C143.000,108.000 147.000,106.000 147.000,106.000 C147.000,106.000 149.000,103.000 149.000,103.000 C149.000,103.000 149.000,101.000 149.000,101.000 C149.000,101.000 147.000,101.000 147.000,101.000 C147.000,101.000 147.000,99.000 147.000,99.000 C147.000,99.000 150.000,98.000 150.000,98.000 C150.000,98.000 152.000,98.000 152.000,98.000 C152.000,98.000 155.000,96.000 155.000,96.000 C155.000,96.000 159.000,94.000 159.000,94.000 C159.000,94.000 162.000,91.000 162.000,91.000 C162.000,91.000 166.000,87.000 166.000,87.000 C166.000,87.000 169.000,83.000 169.000,83.000 C169.000,83.000 171.000,79.000 171.000,79.000 C171.000,79.000 170.000,76.000 170.000,76.000 C170.000,76.000 169.000,73.000 169.000,73.000 C169.000,73.000 164.000,70.000 164.000,70.000 C164.000,70.000 160.000,68.000 160.000,68.000 C160.000,68.000 157.000,66.000 157.000,66.000 C157.000,66.000 157.000,64.000 157.000,64.000 C157.000,64.000 160.000,62.000 160.000,62.000 C160.000,62.000 164.000,59.000 164.000,59.000 C164.000,59.000 167.000,54.000 167.000,54.000 C167.000,54.000 169.000,51.000 169.000,51.000 C169.000,51.000 170.000,47.000 170.000,47.000 C170.000,47.000 169.000,43.000 169.000,43.000 C169.000,43.000 167.000,39.000 167.000,39.000 C167.000,39.000 163.000,37.000 163.000,37.000 C163.000,37.000 161.000,35.000 161.000,35.000 C161.000,35.000 159.000,35.000 159.000,35.000 C159.000,35.000 159.000,33.000 159.000,33.000 C159.000,33.000 161.000,33.000 161.000,33.000 C161.000,33.000 160.000,29.000 160.000,29.000 C160.000,29.000 157.000,26.000 157.000,26.000 C157.000,26.000 155.000,24.000 155.000,24.000 C155.000,24.000 153.000,23.000 153.000,23.000 C153.000,23.000 148.000,20.000 148.000,20.000 C148.000,20.000 143.000,19.000 143.000,19.000 C143.000,19.000 138.000,18.000 138.000,18.000 C138.000,18.000 131.000,18.000 131.000,18.000 C131.000,18.000 127.000,18.000 127.000,18.000 C127.000,18.000 124.000,19.000 124.000,19.000 C124.000,19.000 121.000,18.000 121.000,18.000 C121.000,18.000 121.000,16.000 121.000,16.000 C121.000,16.000 124.000,16.000 124.000,16.000 C124.000,16.000 125.000,15.000 125.000,15.000 C125.000,15.000 120.000,11.000 120.000,11.000 C120.000,11.000 113.000,7.000 113.000,7.000 C113.000,7.000 106.000,6.000 106.000,6.000 C106.000,6.000 101.000,5.000 101.000,5.000 C101.000,5.000 94.000,5.000 94.000,5.000 C94.000,5.000 89.000,5.000 89.000,5.000 C89.000,5.000 83.000,6.000 83.000,6.000 C83.000,6.000 75.000,8.000 75.000,8.000 C75.000,8.000 69.000,11.000 69.000,11.000 C69.000,11.000 65.000,12.000 65.000,12.000 C65.000,12.000 61.000,14.000 61.000,14.000 C61.000,14.000 58.000,16.000 58.000,16.000 C58.000,16.000 57.000,17.000 57.000,17.000 C57.000,17.000 55.000,16.000 55.000,16.000 C55.000,16.000 56.000,13.000 56.000,13.000 C56.000,13.000 59.000,12.000 59.000,12.000 C59.000,12.000 60.000,10.000 60.000,10.000 C60.000,10.000 53.000,10.000 53.000,10.000 C53.000,10.000 46.000,12.000 46.000,12.000 C46.000,12.000 43.000,13.000 43.000,13.000 C43.000,13.000 39.000,15.000 39.000,15.000 C39.000,15.000 39.000,17.000 39.000,17.000 C39.000,17.000 40.000,18.000 40.000,18.000 C40.000,18.000 41.000,20.000 41.000,20.000 C41.000,20.000 35.000,20.000 35.000,20.000 C35.000,20.000 33.000,22.000 33.000,22.000 C33.000,22.000 32.000,23.000 32.000,23.000 C32.000,23.000 30.000,22.000 30.000,22.000 C30.000,22.000 30.000,20.000 30.000,20.000 C30.000,20.000 25.000,23.000 25.000,23.000 C25.000,23.000 20.000,25.000 20.000,25.000 C20.000,25.000 16.000,29.000 16.000,29.000 C16.000,29.000 12.000,33.000 12.000,33.000 C12.000,33.000 10.000,37.000 10.000,37.000 C10.000,37.000 10.000,40.000 10.000,40.000 C10.000,40.000 9.000,43.000 9.000,43.000 C9.000,43.000 8.000,46.000 8.000,46.000 Z" id="logo_full-2" class="logo_full-8" fill-rule="evenodd"/>
      <path d="M88.000,44.000 C88.000,44.000 88.000,46.000 88.000,46.000 C88.000,46.000 90.000,48.000 90.000,48.000 C90.000,48.000 92.000,50.000 92.000,50.000 C92.000,50.000 95.000,51.000 95.000,51.000 C95.000,51.000 99.000,52.000 99.000,52.000 C99.000,52.000 103.000,52.000 103.000,52.000 C103.000,52.000 107.000,52.000 107.000,52.000 C107.000,52.000 111.000,52.000 111.000,52.000 C111.000,52.000 115.000,52.000 115.000,52.000 C115.000,52.000 117.000,51.000 117.000,51.000 C117.000,51.000 120.000,51.000 120.000,51.000 C120.000,51.000 123.000,51.000 123.000,51.000 C123.000,51.000 126.000,50.000 126.000,50.000 C126.000,50.000 129.000,49.000 129.000,49.000 C129.000,49.000 131.000,49.000 131.000,49.000 C131.000,49.000 134.000,48.000 134.000,48.000 C134.000,48.000 138.000,47.000 138.000,47.000 C138.000,47.000 142.000,46.000 142.000,46.000 C142.000,46.000 145.000,44.000 145.000,44.000 C145.000,44.000 148.000,43.000 148.000,43.000 C148.000,43.000 149.000,42.000 149.000,42.000 C149.000,42.000 148.000,40.000 148.000,40.000 C148.000,40.000 147.000,39.000 147.000,39.000 C147.000,39.000 143.000,37.000 143.000,37.000 C143.000,37.000 140.000,35.000 140.000,35.000 C140.000,35.000 135.000,34.000 135.000,34.000 C135.000,34.000 131.000,33.000 131.000,33.000 C131.000,33.000 125.000,32.000 125.000,32.000 C125.000,32.000 118.000,31.000 118.000,31.000 C118.000,31.000 112.000,31.000 112.000,31.000 C112.000,31.000 107.000,31.000 107.000,31.000 C107.000,31.000 103.000,32.000 103.000,32.000 C103.000,32.000 99.000,34.000 99.000,34.000 C99.000,34.000 95.000,36.000 95.000,36.000 C95.000,36.000 92.000,38.000 92.000,38.000 C92.000,38.000 90.000,40.000 90.000,40.000 C90.000,40.000 89.000,42.000 89.000,42.000 C89.000,42.000 88.000,44.000 88.000,44.000 Z" id="logo_full-3" class="logo_full-9" fill-rule="evenodd"/>
      <path d="M31.000,73.000 C31.000,73.000 36.000,68.000 36.000,68.000 C36.000,68.000 39.000,68.000 39.000,68.000 C39.000,68.000 43.000,65.000 43.000,65.000 C43.000,65.000 44.000,65.000 44.000,65.000 C44.000,65.000 49.000,69.000 49.000,69.000 C49.000,69.000 54.000,70.000 54.000,70.000 C54.000,70.000 63.000,67.000 63.000,67.000 C63.000,67.000 67.000,67.000 67.000,67.000 C67.000,67.000 76.000,72.000 76.000,72.000 C76.000,72.000 88.000,73.000 88.000,73.000 C88.000,73.000 94.000,70.000 94.000,70.000 C94.000,70.000 109.000,71.000 109.000,71.000 C109.000,71.000 123.000,71.000 123.000,71.000 C123.000,71.000 132.000,67.000 132.000,67.000 C132.000,67.000 136.000,65.000 136.000,65.000 C136.000,65.000 138.000,65.000 138.000,65.000 C138.000,65.000 138.000,67.000 138.000,67.000 C138.000,67.000 136.000,68.000 136.000,68.000 C136.000,68.000 133.000,70.000 133.000,70.000 C133.000,70.000 133.000,72.000 133.000,72.000 C133.000,72.000 135.000,78.000 135.000,78.000 C135.000,78.000 134.000,81.000 134.000,81.000 C134.000,81.000 114.000,89.000 114.000,89.000 C114.000,89.000 106.000,91.000 106.000,91.000 C106.000,91.000 98.000,92.000 98.000,92.000 C98.000,92.000 91.000,94.000 91.000,94.000 C91.000,94.000 84.000,94.000 84.000,94.000 C84.000,94.000 78.000,94.000 78.000,94.000 C78.000,94.000 70.000,96.000 70.000,96.000 C70.000,96.000 64.000,98.000 64.000,98.000 C64.000,98.000 60.000,99.000 60.000,99.000 C60.000,99.000 57.000,98.000 57.000,98.000 C57.000,98.000 53.000,94.000 53.000,94.000 C53.000,94.000 49.000,88.000 49.000,88.000 C49.000,88.000 47.000,84.000 47.000,84.000 C47.000,84.000 44.000,82.000 44.000,82.000 C44.000,82.000 41.000,81.000 41.000,81.000 C41.000,81.000 37.000,77.000 37.000,77.000 C37.000,77.000 35.000,76.000 35.000,76.000 C35.000,76.000 32.000,75.000 32.000,75.000 C32.000,75.000 31.000,73.000 31.000,73.000 Z" id="logo_full-4" class="logo_full-10" fill-rule="evenodd"/>
      <path d="M28.000,45.000 C28.000,45.000 31.000,48.000 31.000,48.000 C31.000,48.000 36.000,50.000 36.000,50.000 C36.000,50.000 41.000,51.000 41.000,51.000 C41.000,51.000 47.000,51.000 47.000,51.000 C47.000,51.000 53.000,51.000 53.000,51.000 C53.000,51.000 57.000,51.000 57.000,51.000 C57.000,51.000 62.000,51.000 62.000,51.000 C62.000,51.000 66.000,51.000 66.000,51.000 C66.000,51.000 69.000,50.000 69.000,50.000 C69.000,50.000 73.000,48.000 73.000,48.000 C73.000,48.000 77.000,47.000 77.000,47.000 C77.000,47.000 81.000,44.000 81.000,44.000 C81.000,44.000 84.000,41.000 84.000,41.000 C84.000,41.000 84.000,39.000 84.000,39.000 C84.000,39.000 82.000,36.000 82.000,36.000 C82.000,36.000 79.000,34.000 79.000,34.000 C79.000,34.000 75.000,33.000 75.000,33.000 C75.000,33.000 70.000,32.000 70.000,32.000 C70.000,32.000 63.000,31.000 63.000,31.000 C63.000,31.000 58.000,31.000 58.000,31.000 C58.000,31.000 55.000,30.000 55.000,30.000 C55.000,30.000 50.000,30.000 50.000,30.000 C50.000,30.000 45.000,31.000 45.000,31.000 C45.000,31.000 41.000,33.000 41.000,33.000 C41.000,33.000 36.000,35.000 36.000,35.000 C36.000,35.000 33.000,38.000 33.000,38.000 C33.000,38.000 31.000,40.000 31.000,40.000 C31.000,40.000 29.000,42.000 29.000,42.000 C29.000,42.000 28.000,45.000 28.000,45.000 Z" id="logo_full-5" class="logo_full-9" fill-rule="evenodd"/>
      <path d="M46.000,34.000 C46.000,34.000 41.000,36.000 41.000,36.000 C41.000,36.000 38.000,38.000 38.000,38.000 C38.000,38.000 35.000,41.000 35.000,41.000 C35.000,41.000 33.000,42.000 33.000,42.000 C33.000,42.000 32.000,44.000 32.000,44.000 C32.000,44.000 32.000,45.000 32.000,45.000 C32.000,45.000 34.000,46.000 34.000,46.000 C34.000,46.000 36.000,46.000 36.000,46.000 C36.000,46.000 39.000,47.000 39.000,47.000 C39.000,47.000 42.000,48.000 42.000,48.000 C42.000,48.000 45.000,48.000 45.000,48.000 C45.000,48.000 45.000,44.000 45.000,44.000 C45.000,44.000 45.000,41.000 45.000,41.000 C45.000,41.000 45.000,38.000 45.000,38.000 C45.000,38.000 46.000,36.000 46.000,36.000 C46.000,36.000 47.000,35.000 47.000,35.000 C47.000,35.000 46.000,34.000 46.000,34.000 Z" id="logo_full-6" class="logo_full-12" fill-rule="evenodd"/>
      <path d="M74.000,36.000 C74.000,36.000 75.000,38.000 75.000,38.000 C75.000,38.000 76.000,40.000 76.000,40.000 C76.000,40.000 76.000,42.000 76.000,42.000 C76.000,42.000 76.000,44.000 76.000,44.000 C76.000,44.000 78.000,43.000 78.000,43.000 C78.000,43.000 79.000,42.000 79.000,42.000 C79.000,42.000 79.000,40.000 79.000,40.000 C79.000,40.000 78.000,39.000 78.000,39.000 C78.000,39.000 76.000,37.000 76.000,37.000 C76.000,37.000 74.000,36.000 74.000,36.000 Z" id="logo_full-7" class="logo_full-12" fill-rule="evenodd"/>
      <path d="M99.000,37.000 C99.000,37.000 93.000,40.000 93.000,40.000 C93.000,40.000 92.000,42.000 92.000,42.000 C92.000,42.000 91.000,44.000 91.000,44.000 C91.000,44.000 92.000,46.000 92.000,46.000 C92.000,46.000 94.000,48.000 94.000,48.000 C94.000,48.000 97.000,48.000 97.000,48.000 C97.000,48.000 99.000,49.000 99.000,49.000 C99.000,49.000 101.000,49.000 101.000,49.000 C101.000,49.000 104.000,49.000 104.000,49.000 C104.000,49.000 103.000,47.000 103.000,47.000 C103.000,47.000 103.000,44.000 103.000,44.000 C103.000,44.000 103.000,41.000 103.000,41.000 C103.000,41.000 104.000,38.000 104.000,38.000 C104.000,38.000 105.000,37.000 105.000,37.000 C105.000,37.000 105.000,36.000 105.000,36.000 C105.000,36.000 105.000,35.000 105.000,35.000 C105.000,35.000 102.000,35.000 102.000,35.000 C102.000,35.000 99.000,37.000 99.000,37.000 Z" id="logo_full-8" class="logo_full-14" fill-rule="evenodd"/>
      <path d="M133.000,37.000 C133.000,37.000 133.000,39.000 133.000,39.000 C133.000,39.000 133.000,42.000 133.000,42.000 C133.000,42.000 132.000,44.000 132.000,44.000 C132.000,44.000 132.000,46.000 132.000,46.000 C132.000,46.000 135.000,45.000 135.000,45.000 C135.000,45.000 137.000,44.000 137.000,44.000 C137.000,44.000 140.000,44.000 140.000,44.000 C140.000,44.000 142.000,43.000 142.000,43.000 C142.000,43.000 144.000,42.000 144.000,42.000 C144.000,42.000 144.000,41.000 144.000,41.000 C144.000,41.000 141.000,40.000 141.000,40.000 C141.000,40.000 137.000,38.000 137.000,38.000 C137.000,38.000 135.000,37.000 135.000,37.000 C135.000,37.000 133.000,37.000 133.000,37.000 Z" id="logo_full-9" class="logo_full-14" fill-rule="evenodd"/>
      <path d="M47.000,34.000 C47.000,34.000 44.000,34.000 44.000,34.000 C44.000,34.000 41.000,35.000 41.000,35.000 C41.000,35.000 39.000,37.000 39.000,37.000 C39.000,37.000 36.000,39.000 36.000,39.000 C36.000,39.000 33.000,42.000 33.000,42.000 C33.000,42.000 32.000,44.000 32.000,44.000 C32.000,44.000 33.000,45.000 33.000,45.000 C33.000,45.000 35.000,46.000 35.000,46.000 C35.000,46.000 37.000,46.000 37.000,46.000 C37.000,46.000 39.000,47.000 39.000,47.000 C39.000,47.000 42.000,48.000 42.000,48.000 C42.000,48.000 45.000,49.000 45.000,49.000 C45.000,49.000 44.000,46.000 44.000,46.000 C44.000,46.000 44.000,42.000 44.000,42.000 C44.000,42.000 45.000,38.000 45.000,38.000 C45.000,38.000 46.000,36.000 46.000,36.000 C46.000,36.000 47.000,34.000 47.000,34.000 Z" id="logo_full-10" class="logo_full-14" fill-rule="evenodd"/>
      <path d="M74.000,36.000 C74.000,36.000 75.000,38.000 75.000,38.000 C75.000,38.000 76.000,41.000 76.000,41.000 C76.000,41.000 76.000,43.000 76.000,43.000 C76.000,43.000 76.000,44.000 76.000,44.000 C76.000,44.000 78.000,43.000 78.000,43.000 C78.000,43.000 79.000,41.000 79.000,41.000 C79.000,41.000 79.000,40.000 79.000,40.000 C79.000,40.000 78.000,38.000 78.000,38.000 C78.000,38.000 76.000,37.000 76.000,37.000 C76.000,37.000 74.000,36.000 74.000,36.000 Z" id="logo_full-11" class="logo_full-14" fill-rule="evenodd"/>
    </g>
  </g>
</svg>
