<svg xmlns="http://www.w3.org/2000/svg" preserveAspectRatio="xMidYMid" width="41" height="32" viewBox="0 0 41 32"><defs><style>.cls-2 { fill: #77bf26; }</style></defs><path d="M14.75-.015C5.51 4.305-.01 12.345-.01 21.225c0 6.24 3.84 10.8 9.12 10.8 4.56 0 8.16-3.36 8.16-7.8 0-3.36-2.16-6.12-5.4-6.96-3.72-.84-3.84-.96-3.84-2.88 0-4.2 3.12-8.16 9.12-11.52l-2.4-2.88zm23.52 0c-9.24 4.32-14.76 12.36-14.76 21.24 0 6.24 3.84 10.8 9.12 10.8 4.56 0 8.16-3.36 8.16-7.8 0-3.36-2.16-6.12-5.4-6.96-3.72-.84-3.84-.96-3.84-2.88 0-4.2 3.12-8.16 9.12-11.52l-2.4-2.88z" id="path-1" class="cls-2" fill-rule="evenodd"/></svg>