<svg xmlns="http://www.w3.org/2000/svg" preserveAspectRatio="xMidYMid" width="92" height="66" viewBox="0 0 92 66"><defs><style>.cls-3 { fill: #0d0d0d; } .cls-4 { fill: #77bf26; } .cls-5 { fill: #ffffff; }</style></defs><g id="logo_mobsvg" fill-rule="evenodd"><path d="M51.085.01c4.063-.07 6.147.766 8.675 1.8 2.113.863 4.388.808 6.062 1.998.868.617.974 1.512 1.672 2.298l1.672 1.1c4.93-1.522 13.12 2.4 15.05 4.895l2.195 3.5.42 1.797c1.38 2.435 5.855 2.488 4.912 7.394-.542 2.815-1.848 6.69-3.867 8.195-.775.578-1.89.772-2.51 1.5 2.983.25 7.858 4.016 6.9 7.293-.834 2.85-3.738 5.452-5.54 7.594-.865 1.03-2.735 2.29-4.076 2.798l-1.464.3c-.327.304-.255 1.97-.628 2.498l-3.762 3.697c-3.003 2.23-9.06 4.33-14.32 3.298l-5.12-1.4c-4.86 6.54-10.707 6.343-19.126 3.798-1.847-.965-3.693-1.93-5.54-2.897-.768-.112-5.863.862-7.316 1.1-9.667 1.58-14.132-5.382-15.468-11.99-4.377-.457-10.81-8.158-9.824-13.99.49-2.904 1.05-5.428 1.985-7.895.35-.666.697-1.332 1.046-1.998.267-1.106-.853-2.097-1.046-2.998-.403-1.886.966-4.15 1.673-5.296 2.247-3.638 5.903-6.862 9.93-8.793l4.284-.9 1.15-1.298C21.58 5.62 24.85 3.58 28.195 2.808c1.88-.432 4.35-.056 6.167.3l1.88.5c2.62-.44 5.97-2.077 8.885-2.798l5.957-.8z" id="path-1" class="cls-3"/><path d="M50.667 2.11c6.422.27 12.667 2.1 15.573 5.794-.853.188-1.743.514-2.3 1v.1c1.484 1.69 6.068-.218 9.302.3 4.476.715 11.4 2.893 11.497 7.594-.495.164-.6.303-.837.7l.21.5c1.133.43 2.12 1.328 3.03 1.997 7.454 5.475-2.18 10.88-4.39 14.79 1.334 1.864 5.697 1.72 7.107 4.795 1.614 3.52-4.49 9.55-7.107 10.592l-2.926 1.4c-.662.1-1.324.2-1.986.298-.276.204-.188.642-.208 1.1l1.777.3v.4c-1.186 1.198-2.37 2.397-3.555 3.596-2.613 2.064-12.946 4.49-16.93 1.8v-.1c.737-.254 1.188-.704 1.357-1.5-.377-.236-.51-.353-1.15-.4-.66.467-1.323.933-1.985 1.4-.436-.23-.898-.61-1.36-.5-.566.054-.717.12-.94.5l-.104.7 1.045.598c-1.41 1.774-8.415 5.318-12.228 4.597-3.382-.64-6.053-2.668-8.884-3.796l.21-.4c.785-.15 1.87-.653 1.567-1.5-.09-.45.012-.296-.314-.498-1.584-.57-4.42 1.14-5.958 1.498-3.91.915-10.825.736-13.796-1-2.01-1.172-3.986-5.48-4.703-7.993-.325-1.136.194-2.96-.523-3.696-.774.243-.795.6-1.254 1.1-4.295-.323-7.02-4.54-7.63-8.394-.292-1.85 1.205-8.305 1.777-9.893.655-1.818 2.605-3.637 2.195-5.695l-.314-.1c-.863-.225-1.22.198-1.776.5v-1l1.358-4.296c1.377-3.165 4.148-4.89 7.003-6.695 1.18-.747 2.042-1.75 3.657-2.098-.14.367-.28.733-.418 1.1l.312.5.314.1 2.195-2h2.51l.104-.7c-.382-.347-.76-.32-.94-.898 1.84-2.322 7.814-3.93 11.914-3.298v.2c-1.266.35-2.576 1.144-2.718 2.598l.314.4h.104l3.554-1.9 8.57-3.296 8.675-1.2zM27.883 15.897c-1.448.508-2.894.38-4.18.9-2.507 1.012-8.894 4.13-8.362 7.294 3.763 4.453 20.61 3.19 25.398.4 1.247-.727 3.033-1.44 3.345-2.998.852-4.263-12.066-5.25-16.2-5.596zm31.772.9l-4.598.5c-2.628.623-4.28 1.942-6.167 3.197-1.083.72-2.924 2.483-1.776 4.296 1.46 2.308 6.752 2.748 10.87 2.4 6.878-.582 15.536-1.757 20.17-4.597l.21-.6C76.5 17.884 65.6 16.868 59.654 16.8zm12.542 17.686c-3.116 1.786-6.583 2.535-10.87 3.197-3.135-.098-6.27-.198-9.406-.298-3.175.485-7.306 1.585-10.764.9-2.538-.505-3.51-2.54-6.062-2.9-3-.422-5.048 2.17-8.36 1.5-1.725-.35-2.193-1.54-3.45-2.198-2.688.45-4.85 2.018-6.375 3.697.044.703.214.71.52 1.1l2.196.5 1.777 1.998c1.506 1.116 3.075 1.484 4.076 3.098 1.427 2.302 2.095 5.885 4.807 6.894 2.014.75 7.912-1.73 10.033-2.198l6.794-.2 5.957-1.4 3.868-.298 7.316-2.498c2.064-.694 6-1.102 6.898-2.898.862-1.73-1.486-3.072-1.15-4.896.26-1.406 2.995-2.257 2.718-3.098h-.523z" id="path-2" class="cls-4"/><path d="M24.538 17.897h.21l-1.15 3.397c-.34 1.372.522 3.695.21 4.197-1.82-.354-5.703-.425-6.9-1.998.853-3.168 4.91-4.075 7.63-5.595zm30.1.7h1.15c-.56 2.26-1.658 4.79-.627 7.294-3.503.082-5.49-.433-7.106-2.098v-1l1.463-1.598c1.558-1.07 3.365-1.684 5.122-2.598zm-15.26.5c1.337.37 2.402 1.225 2.405 2.897-.306.555-.722.777-1.358 1-.05-1.66-.696-2.53-1.046-3.898zm30.73.2c2.122.363 4.97 1.397 6.374 2.597l-.104.2c-2.23.6-4.46 1.2-6.69 1.798v-.4l.42-4.196z" id="path-3" class="cls-5"/></g></svg>