<svg xmlns="http://www.w3.org/2000/svg" preserveAspectRatio="xMidYMid" width="422" height="125" viewBox="0 0 422 125"><defs><style>.cls-3 { fill: #0f8add; } .cls-5 { fill: #ffffff; } .cls-6 { fill: #0d0d0d; } .cls-7 { fill: #77bf26; }</style></defs><g id="logo_fullsvg"><path id="rect-1" class="cls-3" d="M97 26h325v75H97z"/><g id="face2" fill-rule="evenodd"><path d="M368.834 80.647h-3.92l5.32-10.918-8.2-17.558h4l3.44 7.44c.92 2 1.88 4.118 2.68 5.918h.08c.88-1.96 1.76-3.92 2.68-5.92l3.438-7.438h3.8l-13.318 28.475zm-6.162-11.798v3c-.48.2-1.16.36-1.92.36-1.56 0-3.04-.68-3.8-2.08h-.08c-1.12 1.04-3.4 2.16-6.038 2.16-1.6 0-3.36-.4-4.68-1.4-1.28-.96-2.08-2.44-2.08-4.36 0-2.2 1.04-3.8 2.6-4.8 1.48-.96 3.48-1.32 5.52-1.32 1.52 0 2.92.2 4.2.52v-1.64c0-1.44-.36-2.52-1.12-3.238-.76-.68-1.96-1.08-3.64-1.08-2.48 0-4.56.88-6.04 1.96v-3.52c1.52-.92 3.64-1.68 6.56-1.68 2.4 0 4.48.52 5.878 1.8 1.16 1.04 1.96 2.72 1.96 5.16v8.358c0 1.2.44 2.08 1.52 2.08.4 0 .84-.12 1.16-.28zm-6.28-5.16c-1.08-.32-2.6-.52-3.84-.52-2.438 0-4.838.72-4.838 3.04 0 1.92 1.64 2.88 3.76 2.88 1.88 0 3.72-.76 4.92-1.72v-3.68zm-23.68 8.16l-3.08-8.44c-.68-1.8-1.36-3.8-1.92-5.52h-.08c-.56 1.72-1.24 3.72-1.92 5.52l-3.08 8.44h-3.598l-6.84-19.678h3.92l2.92 8.76c.68 2.038 1.32 4.038 1.96 6.078h.08c.68-2 1.44-4.12 2.16-6.08l3.238-8.758h2.56l3.24 8.76c.76 2.038 1.48 4.078 2.16 6.078h.08c.6-2 1.24-4 1.92-6.04l2.918-8.798h3.76l-6.84 19.677h-3.56zm-41.438.44c-5.96 0-10.398-4.48-10.398-10.28 0-5.8 4.44-10.278 10.398-10.278 5.96 0 10.398 4.48 10.398 10.28 0 5.798-4.44 10.277-10.398 10.277zm0-17.278c-3.92 0-6.8 3.04-6.8 7 0 3.958 2.88 6.997 6.8 6.997s6.8-3.04 6.8-7-2.88-6.998-6.8-6.998zm-17.88 5.36c0-2.04-.28-3.24-.92-4-.8-.96-2.08-1.28-3.16-1.28-2.24 0-4.76 1.4-6.16 3.28v13.477h-3.598V52.17h3.6v2.48l.08.04c1.72-1.72 4.118-2.96 6.878-2.96 2.16 0 4 .76 5.24 2.16 1.08 1.24 1.64 2.76 1.64 5.8v12.157h-3.6V60.37zm-42.917 20.275l5.32-10.918-8.2-17.558h4l3.44 7.44c.92 2 1.878 4.118 2.678 5.918h.08c.88-1.96 1.76-3.92 2.68-5.92l3.44-7.438h3.8l-13.32 28.475h-3.918zm-19-17.597c.52 3.88 3.4 6 7.278 6 2.72 0 5-1.08 6.8-2.44v3.84c-1.76 1.12-4.48 1.84-7.04 1.84-6.08 0-10.638-4.08-10.638-10.28 0-6.198 4.52-10.278 9.798-10.278 4.8 0 8.96 3.36 8.96 9.52 0 .6-.04 1.318-.12 1.798h-15.04zm6.118-8.078c-2.6 0-5.4 1.6-6.04 5.24h11.6c-.32-3.92-3.2-5.24-5.56-5.24zm-17.2 5.4c0-2.2-.28-3.24-.96-4-.76-.88-1.76-1.28-3-1.28-2.36 0-4.8 1.44-6.28 3.28v13.477h-3.598V41.293h3.6v13.358l.08.04c1.72-1.72 4.12-2.96 6.878-2.96 2.16 0 4 .76 5.24 2.16 1.08 1.24 1.64 2.76 1.64 5.8v12.157h-3.6V60.37z" id="path-1" class="cls-5"/><path d="M96.78-.01c7.696-.133 11.643 1.452 16.43 3.408 4.003 1.635 8.31 1.53 11.482 3.785 1.645 1.17 1.845 2.864 3.167 4.353l3.166 2.082c9.336-2.88 24.85 4.55 28.506 9.274l4.158 6.624c.264 1.135.528 2.27.79 3.406 2.616 4.613 11.093 4.713 9.306 14.006-1.026 5.33-3.5 12.668-7.325 15.52-1.467 1.093-3.577 1.46-4.75 2.838 5.647.475 14.882 7.608 13.065 13.816-1.58 5.395-7.077 10.326-10.492 14.384-1.638 1.948-5.18 4.335-7.72 5.3-.924.188-1.848.377-2.77.567-.62.576-.483 3.73-1.19 4.73-2.374 2.335-4.75 4.67-7.126 7.004-5.687 4.222-17.162 8.2-27.12 6.245l-9.7-2.65c-9.205 12.388-20.28 12.013-36.226 7.193l-10.49-5.49c-1.456-.21-11.107 1.633-13.858 2.083-18.31 2.99-26.768-10.192-29.298-22.71-8.29-.865-20.476-15.45-18.608-26.498.93-5.498 1.987-10.28 3.76-14.95l1.98-3.786c.508-2.095-1.614-3.972-1.98-5.678-.763-3.572 1.83-7.863 3.168-10.03C11.36 27.923 18.286 21.817 25.91 18.16l8.117-1.703 2.177-2.46C40.896 10.614 47.09 6.75 53.427 5.29c3.56-.82 8.24-.107 11.68.568 1.187.316 2.375.63 3.562.947 4.958-.836 11.308-3.934 16.826-5.3L96.78-.01z" id="path-2" class="cls-6"/><path d="M95.988 3.966c12.163.512 23.992 3.98 29.496 10.977-1.615.356-3.302.973-4.355 1.892v.19c2.808 3.204 11.49-.413 17.617.567 8.477 1.357 21.59 5.48 21.775 14.384-.935.312-1.133.574-1.583 1.325.13.316.263.632.395.947 2.148.815 4.016 2.52 5.74 3.785 14.12 10.37-4.13 20.605-8.314 28.01 2.527 3.534 10.792 3.26 13.462 9.085 3.057 6.666-8.505 18.09-13.46 20.062-1.848.882-3.696 1.765-5.544 2.65l-3.76.566c-.526.386-.36 1.216-.397 2.082 1.123.19 2.245.38 3.366.568v.757l-6.73 6.813c-4.95 3.91-24.522 8.505-32.07 3.407v-.19c1.398-.48 2.253-1.33 2.574-2.838-.715-.447-.966-.668-2.178-.757l-3.76 2.65c-.826-.437-1.702-1.155-2.574-.947-1.075.104-1.36.228-1.782.948l-.198 1.324c.66.38 1.32.757 1.98 1.136-2.672 3.36-15.94 10.072-23.16 8.706-6.407-1.212-11.466-5.055-16.828-7.192l.396-.757c1.49-.285 3.545-1.237 2.97-2.84-.17-.856.022-.562-.594-.945-3-1.08-8.373 2.158-11.284 2.84-7.406 1.73-20.502 1.39-26.13-1.894-3.807-2.222-7.55-10.384-8.91-15.14-.614-2.154.37-5.612-.99-7.003-1.464.46-1.504 1.138-2.374 2.08-8.136-.61-13.296-8.598-14.45-15.896-.556-3.503 2.28-15.73 3.364-18.737 1.24-3.444 4.935-6.89 4.157-10.788l-.593-.19c-1.636-.425-2.31.377-3.366.947v-1.893l2.574-8.14c2.607-5.994 7.856-9.26 13.263-12.68 2.24-1.415 3.87-3.314 6.928-3.974-.262.694-.526 1.388-.79 2.082.198.316.396.63.593.947l.594.19 4.157-3.786h4.752c.065-.442.13-.884.197-1.325-.722-.66-1.437-.606-1.78-1.702 3.485-4.4 14.8-7.443 22.566-6.246v.378c-2.398.665-4.88 2.166-5.148 4.92l.594.758h.198l6.73-3.596c5.41-2.08 10.823-4.164 16.233-6.245l16.43-2.27zM52.833 30.083c-2.743.963-5.48.72-7.92 1.704-4.744 1.916-16.842 7.824-15.835 13.816 7.126 8.433 39.035 6.044 48.104.757 2.36-1.376 5.744-2.725 6.334-5.678 1.615-8.074-22.852-9.944-30.683-10.6zm60.18 1.704l-8.71.946c-4.978 1.182-8.107 3.68-11.68 6.056-2.053 1.364-5.54 4.704-3.366 8.138 2.766 4.37 12.79 5.2 20.588 4.542 13.03-1.102 29.428-3.328 38.206-8.706l.397-1.136c-3.53-7.783-24.174-9.71-35.435-9.84zm23.754 33.5c-5.902 3.38-12.47 4.8-20.587 6.055l-17.817-.568c-6.016.92-13.84 3.004-20.39 1.704-4.808-.955-6.65-4.808-11.48-5.49-5.685-.8-9.563 4.11-15.838 2.84-3.265-.66-4.152-2.918-6.532-4.164-5.092.855-9.187 3.823-12.076 7.003.086 1.33.408 1.342.99 2.082 1.386.314 2.772.63 4.157.945l3.365 3.785c2.85 2.114 5.824 2.81 7.72 5.867 2.706 4.36 3.97 11.147 9.106 13.06 3.816 1.42 14.987-3.28 19.004-4.164l12.867-.38c3.76-.882 7.523-1.765 11.284-2.65l7.325-.566 13.857-4.732c3.91-1.313 11.367-2.086 13.066-5.488 1.633-3.28-2.815-5.818-2.178-9.274.49-2.662 5.672-4.275 5.147-5.867h-.99z" id="path-3" class="cls-7"/><path d="M46.498 33.87h.396l-2.177 6.434c-.643 2.598.99 6.998.395 7.948-3.447-.672-10.8-.807-13.065-3.785 1.614-6.002 9.302-7.72 14.45-10.598zm57.012 1.324h2.178c-1.06 4.28-3.14 9.076-1.188 13.815-6.637.154-10.402-.822-13.46-3.975v-1.893l2.77-3.028c2.95-2.024 6.373-3.19 9.7-4.92zm-28.902.946c2.53.7 4.548 2.323 4.553 5.488-.578 1.052-1.366 1.473-2.572 1.893-.092-3.14-1.318-4.788-1.98-7.38zm58.2.378c4.02.69 9.416 2.65 12.076 4.92l-.198.38-12.67 3.406v-.757l.792-7.95z" id="path-4" class="cls-5"/></g></g></svg>