<svg xmlns="http://www.w3.org/2000/svg" preserveAspectRatio="xMidYMid" width="328" height="328" viewBox="0 0 328 328"><defs><style>.cls-3 { fill: #00a99d; stroke: #77bf26; } .cls-4 { fill: #fff200; stroke: #77bf26; } .cls-5 { fill: #fbaf5d; stroke: #77bf26; } .cls-6 { stroke: #77bf26; stroke-width: 1px; fill: none; }</style></defs><g id="piechartsvg"><path d="M156.663 155.686l163.978 47.672c-18.003 70.352-81.817 122.36-157.78 122.36-41.565 0-79.486-15.58-108.262-41.205l102.064-128.85v.023z" id="path-1" class="cls-3" fill-rule="evenodd"/><path d="M156.614 155.662L54.76 284.768C21.75 254.963 1 211.836 1 163.858 1 78.586 66.542 8.63 149.996 1.594l6.666 154.083-.048-.014z" id="path-2" class="cls-4" fill-rule="evenodd"/><path d="M156.654 155.674l.01-.012-6.654-154.16c4.24-.33 8.524-.502 12.85-.502 89.944 0 162.86 72.915 162.86 162.86 0 13.71-1.704 27.02-4.895 39.743l-164.17-47.93z" id="path-3" class="cls-5" fill-rule="evenodd"/><ellipse id="ellipse-1" class="cls-6" cx="163" cy="164" rx="163" ry="164"/><path d="M157.874 156.134l-.998.045-7-155 .998-.046 7 155z" id="path-4" class="cls-6" fill-rule="evenodd"/><path d="M157.235 156.636l.28-.96 164 48-.28.96-164-48z" id="path-5" class="cls-6" fill-rule="evenodd"/><path d="M55.767 285.466l-.784-.62 102-129 .784.62-102 129z" id="path-6" class="cls-6" fill-rule="evenodd"/></g></svg>