<svg xmlns="http://www.w3.org/2000/svg" preserveAspectRatio="xMidYMid" width="11" height="47" viewBox="0 0 11 47"><defs><style>.cls-2 { fill: #ffffff; }</style></defs><path d="M7.284 33.842c.32-2.917.638-5.412.957-7.486.32-2.073.617-3.862.89-5.366.274-1.504.53-2.797.77-3.88.238-1.08.444-2.1.614-3.058.17-.957.308-1.932.41-2.923.103-.992.154-2.148.154-3.47 0-1.185-.16-2.256-.478-3.213-.32-.957-.735-1.76-1.248-2.41C8.84 1.387 8.247.887 7.575.534 6.903.18 6.225.004 5.54.004c-.682 0-1.355.176-2.015.53-.66.353-1.254.854-1.778 1.503-.524.65-.945 1.453-1.264 2.41-.32.957-.48 2.028-.48 3.213 0 1.322.052 2.478.155 3.47.103.99.24 1.965.41 2.922.17.957.376 1.977.615 3.06.24 1.08.5 2.374.787 3.878.284 1.504.586 3.293.905 5.366.32 2.074.638 4.57.957 7.486h3.452zM1.286 40.2c.24-.57.57-1.066.99-1.488.422-.42.912-.752 1.47-.99.56-.24 1.157-.36 1.795-.36.64 0 1.243.12 1.813.36.57.238 1.07.57 1.504.99.432.422.77.918 1.008 1.487.24.57.36 1.173.36 1.81 0 .662-.12 1.27-.36 1.83-.24.558-.576 1.048-1.008 1.47-.433.42-.935.75-1.504.99-.57.24-1.174.36-1.812.36-.637 0-1.235-.12-1.793-.36-.56-.24-1.05-.57-1.47-.99-.422-.422-.752-.912-.99-1.47-.24-.56-.36-1.168-.36-1.83 0-.637.12-1.24.36-1.81z" id="path-1" class="cls-2" fill-rule="evenodd"/></svg>