<svg xmlns="http://www.w3.org/2000/svg" preserveAspectRatio="xMidYMid" width="58" height="57" viewBox="0 0 58 57"><defs><style>.cls-2 { fill: #0f8add; }</style></defs><path d="M50.396 44.535v-8.35h7.002v8.35h-7.002zM34.43 56.05c-3.4 0-6.128-.934-8.19-2.8-2.06-1.864-3.177-4.535-3.353-8.012-.47.078-.923.132-1.363.16-.44.03-.864.045-1.274.045-3.067 0-5.855-.508-8.364-1.523-2.51-1.015-4.644-2.49-6.402-4.424-1.757-1.933-3.11-4.307-4.057-7.12C.48 29.565.007 26.353.007 22.74c0-3.554.468-6.743 1.405-9.565.938-2.822 2.304-5.24 4.102-7.25 1.718-1.915 3.852-3.38 6.4-4.396C14.465.512 17.243.004 20.25.004c3.125 0 5.933.513 8.423 1.538s4.604 2.486 6.343 4.38c1.777 1.953 3.14 4.346 4.087 7.178.947 2.832 1.42 6.045 1.42 9.638 0 5.332-1.09 9.825-3.266 13.477-2.178 3.652-5.103 6.21-8.775 7.676.078 2.227.606 3.956 1.582 5.186.977 1.23 2.754 1.846 5.332 1.846.8 0 1.753-.122 2.857-.366 1.103-.245 1.89-.465 2.358-.66h.792v5.333c-1.172.29-2.33.5-3.47.628-1.144.127-2.31.19-3.502.19zm-3.794-20.172c2.568-3.037 3.852-7.417 3.852-13.14 0-5.664-1.27-10.034-3.808-13.11-2.54-3.076-6.006-4.614-10.4-4.614-4.435 0-7.916 1.538-10.445 4.614-2.53 3.076-3.794 7.446-3.794 13.11 0 5.723 1.29 10.103 3.868 13.14 2.578 3.037 6.035 4.556 10.37 4.556 4.337 0 7.79-1.52 10.358-4.556z" id="path-1" class="cls-2" fill-rule="evenodd"/></svg>