<svg xmlns="http://www.w3.org/2000/svg" preserveAspectRatio="xMidYMid" width="422" height="125" viewBox="0 0 422 125"><defs><style>.cls-3 { fill: #0f8add; } .cls-4 { fill: #fafaf9; } .cls-6 { fill: #0d0d0d; } .cls-7 { fill: #77bf26; } .cls-8 { fill: #ffffff; }</style></defs><g id="logo_fullsvg"><path id="rect-1" class="cls-3" d="M97 26h325v75H97z"/><path d="M369.993 79.09h-3.534l3.656-8.19-7.823-18.686h3.586l6.03 14.555 6.08-14.556h3.464l-11.46 26.877zm-13.99-9.333c-.292.2-.688.478-1.186.835-.498.358-.98.642-1.45.853-.55.27-1.184.495-1.898.676-.716.183-1.554.274-2.515.274-1.77 0-3.27-.586-4.5-1.758-1.23-1.172-1.846-2.666-1.846-4.482 0-1.49.32-2.693.957-3.613.64-.92 1.55-1.642 2.734-2.17 1.196-.527 2.632-.884 4.308-1.072 1.675-.187 3.474-.328 5.396-.422v-.51c0-.75-.132-1.37-.396-1.863-.263-.492-.64-.88-1.133-1.16-.47-.27-1.032-.45-1.688-.545-.656-.094-1.342-.14-2.056-.14-.867 0-1.834.114-2.9.342-1.066.23-2.168.56-3.305.993h-.175v-3.357c.644-.176 1.576-.37 2.795-.58 1.218-.21 2.42-.317 3.603-.317 1.383 0 2.587.114 3.612.342 1.026.23 1.913.62 2.664 1.17.738.538 1.3 1.236 1.687 2.09.388.857.58 1.917.58 3.183V71.85h-3.286v-2.093zm0-8.21c-1.007.06-2.194.148-3.56.265-1.364.117-2.445.287-3.242.51-.948.27-1.716.688-2.3 1.256-.588.57-.88 1.35-.88 2.347 0 1.125.34 1.972 1.02 2.54.68.57 1.716.853 3.11.853 1.16 0 2.22-.226 3.182-.677.96-.45 1.852-.992 2.672-1.625v-5.467zM332.348 71.85l-5.045-15.136-5.01 15.135h-3.04l-5.168-19.636h3.445l3.603 15.205 4.904-15.206h2.724l5.03 15.205 3.41-15.206h3.32l-5.114 19.635h-3.06zm-41.547.544c-2.778 0-4.984-.926-6.618-2.778-1.635-1.85-2.453-4.377-2.453-7.576 0-3.2.817-5.727 2.452-7.585 1.634-1.857 3.84-2.786 6.618-2.786 2.753 0 4.95.928 6.59 2.785 1.642 1.858 2.462 4.386 2.462 7.585 0 3.2-.82 5.725-2.46 7.576-1.64 1.852-3.84 2.778-6.592 2.778zm4.148-16.023c-.996-1.235-2.38-1.853-4.148-1.853-1.793 0-3.185.618-4.175 1.854-.99 1.238-1.485 3.127-1.485 5.67 0 2.46.497 4.328 1.494 5.6.996 1.27 2.384 1.906 4.166 1.906 1.758 0 3.137-.63 4.14-1.89 1-1.26 1.502-3.13 1.502-5.616 0-2.543-.498-4.432-1.494-5.67zm-20.598 4.3c0-.903-.053-1.75-.158-2.54-.106-.792-.3-1.41-.58-1.855-.293-.493-.715-.86-1.266-1.1-.55-.24-1.265-.36-2.144-.36-.903 0-1.846.223-2.83.67-.985.444-1.928 1.012-2.83 1.704v14.66h-3.305V52.213h3.304v2.18c1.033-.855 2.1-1.523 3.2-2.004 1.102-.48 2.233-.72 3.393-.72 2.12 0 3.738.638 4.852 1.915 1.113 1.278 1.67 3.118 1.67 5.52V71.85h-3.305V60.67zm-43.288 18.42l3.656-8.19-7.822-18.686h3.586l6.03 14.555 6.08-14.556h3.464l-11.46 26.877h-3.534zm-20.018-13.56c.363.896.862 1.632 1.494 2.206.61.562 1.333.984 2.17 1.265.84.282 1.762.423 2.77.423 1.336 0 2.68-.266 4.034-.8 1.354-.533 2.317-1.057 2.892-1.573h.175v3.604c-1.114.468-2.25.86-3.41 1.177-1.16.318-2.38.476-3.657.476-3.258 0-5.8-.882-7.63-2.646-1.827-1.763-2.74-4.268-2.74-7.514 0-3.21.875-5.76 2.627-7.647 1.752-1.887 4.057-2.83 6.917-2.83 2.648 0 4.69.773 6.126 2.32 1.435 1.546 2.153 3.744 2.153 6.59v1.794H210.5c0 1.207.18 2.26.544 3.156zm10.705-5.687c-.013-1.734-.45-3.076-1.31-4.025-.862-.95-2.17-1.424-3.93-1.424-1.77 0-3.178.52-4.227 1.564-1.048 1.043-1.643 2.338-1.784 3.885h11.25zm-21.987.826c0-.903-.053-1.75-.16-2.54-.104-.792-.297-1.41-.58-1.855-.292-.493-.714-.86-1.264-1.1-.552-.24-1.267-.36-2.146-.36-.902 0-1.846.223-2.83.67-.984.444-1.928 1.012-2.83 1.704v14.66h-3.305V44.496h3.304v9.897c1.03-.855 2.098-1.523 3.2-2.004 1.1-.48 2.232-.72 3.392-.72 2.12 0 3.738.638 4.85 1.915 1.115 1.278 1.67 3.118 1.67 5.52V71.85h-3.303V60.67z" id="path-1" class="cls-4" fill-rule="evenodd"/><g id="face2" fill-rule="evenodd"><path d="M96.78-.01c7.696-.133 11.643 1.452 16.43 3.408 4.003 1.635 8.31 1.53 11.482 3.785 1.645 1.17 1.845 2.864 3.167 4.353l3.166 2.082c9.336-2.88 24.85 4.55 28.506 9.274l4.158 6.624c.264 1.135.528 2.27.79 3.406 2.616 4.613 11.093 4.713 9.305 14.006-1.025 5.33-3.498 12.668-7.324 15.52-1.467 1.093-3.577 1.46-4.75 2.838 5.647.475 14.882 7.608 13.065 13.816-1.58 5.395-7.077 10.326-10.492 14.384-1.638 1.948-5.18 4.335-7.72 5.3-.924.188-1.848.377-2.77.567-.62.576-.483 3.73-1.19 4.73-2.374 2.335-4.75 4.67-7.126 7.004-5.687 4.222-17.162 8.2-27.12 6.245l-9.7-2.65c-9.205 12.388-20.28 12.013-36.226 7.193l-10.49-5.49c-1.456-.21-11.107 1.633-13.858 2.083-18.31 2.99-26.768-10.192-29.298-22.71-8.29-.865-20.476-15.45-18.608-26.498.93-5.498 1.987-10.28 3.76-14.95l1.98-3.786c.508-2.095-1.614-3.972-1.98-5.678-.763-3.572 1.83-7.863 3.168-10.03C11.36 27.923 18.286 21.817 25.91 18.16l8.117-1.703 2.177-2.46C40.896 10.614 47.09 6.75 53.427 5.29c3.56-.82 8.24-.107 11.68.568 1.187.316 2.375.63 3.562.947 4.958-.836 11.308-3.934 16.826-5.3L96.78-.01z" id="path-2" class="cls-6"/><path d="M95.988 3.966c12.163.512 23.992 3.98 29.496 10.977-1.615.356-3.302.973-4.355 1.892v.19c2.808 3.204 11.49-.413 17.617.567 8.477 1.357 21.59 5.48 21.775 14.384-.935.312-1.133.574-1.583 1.325.13.316.263.632.395.947 2.148.815 4.016 2.52 5.74 3.785 14.12 10.37-4.13 20.605-8.314 28.01 2.527 3.534 10.792 3.26 13.462 9.085 3.057 6.666-8.505 18.09-13.46 20.062-1.848.882-3.696 1.765-5.544 2.65l-3.76.566c-.526.386-.36 1.216-.397 2.082 1.123.19 2.245.38 3.366.568v.757l-6.73 6.813c-4.95 3.91-24.522 8.505-32.07 3.407v-.19c1.398-.48 2.253-1.33 2.574-2.838-.715-.447-.966-.668-2.178-.757l-3.76 2.65c-.826-.437-1.702-1.155-2.574-.947-1.075.104-1.36.228-1.782.948l-.198 1.324c.66.38 1.32.757 1.98 1.136-2.672 3.36-15.94 10.072-23.16 8.706-6.407-1.212-11.466-5.055-16.828-7.192l.396-.757c1.49-.285 3.545-1.237 2.97-2.84-.17-.856.022-.562-.594-.945-3-1.08-8.373 2.158-11.284 2.84-7.406 1.73-20.502 1.39-26.13-1.894-3.807-2.222-7.55-10.384-8.91-15.14-.614-2.154.37-5.612-.99-7.003-1.464.46-1.504 1.138-2.374 2.08-8.136-.61-13.296-8.598-14.45-15.896-.556-3.503 2.28-15.73 3.364-18.737 1.24-3.444 4.935-6.89 4.157-10.788l-.593-.19c-1.636-.425-2.31.377-3.366.947v-1.893l2.574-8.14c2.607-5.994 7.856-9.26 13.263-12.68 2.24-1.415 3.87-3.314 6.928-3.974-.262.694-.526 1.388-.79 2.082.198.316.396.63.593.947l.594.19 4.157-3.786h4.75l.2-1.325c-.723-.66-1.438-.606-1.782-1.702 3.486-4.4 14.802-7.443 22.567-6.246v.378c-2.398.665-4.88 2.166-5.148 4.92l.594.758h.198l6.73-3.596c5.41-2.08 10.823-4.164 16.233-6.245l16.43-2.27zM52.833 30.083c-2.743.963-5.48.72-7.92 1.704C40.17 33.703 28.07 39.61 29.08 45.603c7.126 8.433 39.034 6.044 48.104.757 2.36-1.376 5.744-2.725 6.334-5.678 1.615-8.074-22.852-9.944-30.683-10.6zm60.18 1.704l-8.71.946c-4.978 1.182-8.107 3.68-11.68 6.056-2.053 1.364-5.54 4.704-3.366 8.138 2.766 4.37 12.79 5.2 20.588 4.542 13.03-1.102 29.428-3.328 38.206-8.706l.397-1.136c-3.53-7.783-24.174-9.71-35.435-9.84zm23.754 33.5c-5.902 3.38-12.47 4.8-20.587 6.055l-17.817-.568c-6.016.92-13.84 3.004-20.39 1.704-4.808-.955-6.65-4.808-11.48-5.49-5.685-.8-9.563 4.11-15.838 2.84-3.265-.66-4.152-2.917-6.532-4.164-5.092.855-9.187 3.823-12.076 7.003.086 1.33.408 1.342.99 2.082 1.386.314 2.772.63 4.157.945l3.365 3.785c2.85 2.114 5.824 2.81 7.72 5.867 2.706 4.36 3.97 11.147 9.106 13.06 3.816 1.42 14.987-3.28 19.004-4.164l12.867-.38c3.76-.882 7.523-1.765 11.284-2.65l7.325-.566 13.857-4.732c3.91-1.313 11.367-2.086 13.066-5.488 1.633-3.28-2.815-5.818-2.178-9.274.49-2.662 5.672-4.275 5.147-5.867h-.99z" id="path-3" class="cls-7"/><path d="M46.498 33.87h.396l-2.177 6.434c-.643 2.598.99 6.998.395 7.948-3.447-.672-10.8-.807-13.065-3.785 1.614-6.002 9.302-7.72 14.45-10.598zm57.012 1.324h2.178c-1.06 4.28-3.14 9.076-1.188 13.815-6.637.154-10.402-.822-13.46-3.975v-1.893l2.77-3.028c2.95-2.024 6.373-3.19 9.7-4.92zm-28.902.946c2.53.7 4.548 2.323 4.553 5.488-.578 1.052-1.366 1.473-2.572 1.893-.092-3.14-1.318-4.788-1.98-7.38zm58.2.378c4.02.69 9.416 2.65 12.076 4.92l-.198.38-12.67 3.406v-.757l.792-7.95z" id="path-4" class="cls-8"/></g></g></svg>